STARTFONT 2.1
FONT psf
SIZE 20 75 75
FONTBOUNDINGBOX 9 20 0 -5
STARTPROPERTIES 4
FONT_DESCENT 5
FONT_ASCENT 15
DEFAULT_CHAR 255
_GBDFED_INFO "Edited with gbdfed 1.6."
ENDPROPERTIES
CHARS 512
STARTCHAR C0000
ENCODING 0
SWIDTH 432 0
DWIDTH 9 0
BBX 7 13 1 -1
BITMAP
1C
22
40
40
40
40
FC
40
40
40
40
42
FC
ENDCHAR
STARTCHAR C0001
ENCODING 1
SWIDTH 432 0
DWIDTH 9 0
BBX 1 13 4 -1
BITMAP
80
80
80
80
80
80
80
80
80
80
00
80
80
ENDCHAR
STARTCHAR C0002
ENCODING 2
SWIDTH 432 0
DWIDTH 9 0
BBX 9 9 0 0
BITMAP
C000
F000
FC00
FF00
FF80
FF00
FC00
F000
C000
ENDCHAR
STARTCHAR C0003
ENCODING 3
SWIDTH 432 0
DWIDTH 9 0
BBX 9 9 0 0
BITMAP
C000
F000
FC00
FF00
FF80
FF00
FC00
F000
C000
ENDCHAR
STARTCHAR C0004
ENCODING 4
SWIDTH 432 0
DWIDTH 9 0
BBX 1 13 4 -1
BITMAP
80
80
80
80
80
80
80
80
80
80
00
80
80
ENDCHAR
STARTCHAR C0005
ENCODING 5
SWIDTH 432 0
DWIDTH 9 0
BBX 9 19 0 -5
BITMAP
AA80
0000
AA80
0000
AA80
0000
AA80
0000
AA80
0000
AA80
0000
AA80
0000
AA80
0000
AA80
0000
AA80
ENDCHAR
STARTCHAR C0006
ENCODING 6
SWIDTH 432 0
DWIDTH 9 0
BBX 1 13 4 -1
BITMAP
80
80
80
80
80
80
80
80
80
80
00
80
80
ENDCHAR
STARTCHAR C0007
ENCODING 7
SWIDTH 432 0
DWIDTH 9 0
BBX 9 20 0 -5
BITMAP
5500
AA80
5500
AA80
5500
AA80
5500
AA80
5500
AA80
5500
AA80
5500
AA80
5500
AA80
5500
AA80
5500
AA80
ENDCHAR
STARTCHAR C0008
ENCODING 8
SWIDTH 432 0
DWIDTH 9 0
BBX 5 5 2 7
BITMAP
70
88
88
88
70
ENDCHAR
STARTCHAR C0009
ENCODING 9
SWIDTH 432 0
DWIDTH 9 0
BBX 1 13 4 -1
BITMAP
80
80
80
80
80
80
80
80
80
80
00
80
80
ENDCHAR
STARTCHAR C000a
ENCODING 10
SWIDTH 432 0
DWIDTH 9 0
BBX 1 13 4 -1
BITMAP
80
80
80
80
80
80
80
80
80
80
00
80
80
ENDCHAR
STARTCHAR C000b
ENCODING 11
SWIDTH 432 0
DWIDTH 9 0
BBX 1 13 4 -1
BITMAP
80
80
80
80
80
80
80
80
80
80
00
80
80
ENDCHAR
STARTCHAR C000c
ENCODING 12
SWIDTH 432 0
DWIDTH 9 0
BBX 1 13 4 -1
BITMAP
80
80
80
80
80
80
80
80
80
80
00
80
80
ENDCHAR
STARTCHAR C000d
ENCODING 13
SWIDTH 432 0
DWIDTH 9 0
BBX 1 13 4 -1
BITMAP
80
80
80
80
80
80
80
80
80
80
00
80
80
ENDCHAR
STARTCHAR C000e
ENCODING 14
SWIDTH 432 0
DWIDTH 9 0
BBX 1 13 4 -1
BITMAP
80
80
80
80
80
80
80
80
80
80
00
80
80
ENDCHAR
STARTCHAR C000f
ENCODING 15
SWIDTH 432 0
DWIDTH 9 0
BBX 1 13 4 -1
BITMAP
80
80
80
80
80
80
80
80
80
80
00
80
80
ENDCHAR
STARTCHAR C0010
ENCODING 16
SWIDTH 432 0
DWIDTH 9 0
BBX 1 13 4 -1
BITMAP
80
80
80
80
80
80
80
80
80
80
00
80
80
ENDCHAR
STARTCHAR C0011
ENCODING 17
SWIDTH 432 0
DWIDTH 9 0
BBX 1 13 4 -1
BITMAP
80
80
80
80
80
80
80
80
80
80
00
80
80
ENDCHAR
STARTCHAR C0012
ENCODING 18
SWIDTH 432 0
DWIDTH 9 0
BBX 1 13 4 -1
BITMAP
80
80
80
80
80
80
80
80
80
80
00
80
80
ENDCHAR
STARTCHAR C0013
ENCODING 19
SWIDTH 432 0
DWIDTH 9 0
BBX 7 9 1 -1
BITMAP
10
10
10
FE
10
10
10
00
FE
ENDCHAR
STARTCHAR C0014
ENCODING 20
SWIDTH 432 0
DWIDTH 9 0
BBX 1 13 4 -1
BITMAP
80
80
80
80
80
80
80
80
80
80
00
80
80
ENDCHAR
STARTCHAR C0015
ENCODING 21
SWIDTH 432 0
DWIDTH 9 0
BBX 1 13 4 -1
BITMAP
80
80
80
80
80
80
80
80
80
80
00
80
80
ENDCHAR
STARTCHAR C0016
ENCODING 22
SWIDTH 432 0
DWIDTH 9 0
BBX 1 13 4 -1
BITMAP
80
80
80
80
80
80
80
80
80
80
00
80
80
ENDCHAR
STARTCHAR C0017
ENCODING 23
SWIDTH 432 0
DWIDTH 9 0
BBX 1 13 4 -1
BITMAP
80
80
80
80
80
80
80
80
80
80
00
80
80
ENDCHAR
STARTCHAR C0018
ENCODING 24
SWIDTH 432 0
DWIDTH 9 0
BBX 9 20 0 -5
BITMAP
FF80
FF80
FF80
FF80
FF80
FF80
FF80
FF80
FF80
FF80
FF80
FF80
FF80
FF80
FF80
FF80
FF80
FF80
FF80
FF80
ENDCHAR
STARTCHAR C0019
ENCODING 25
SWIDTH 432 0
DWIDTH 9 0
BBX 1 13 4 -1
BITMAP
80
80
80
80
80
80
80
80
80
80
00
80
80
ENDCHAR
STARTCHAR C001a
ENCODING 26
SWIDTH 432 0
DWIDTH 9 0
BBX 1 13 4 -1
BITMAP
80
80
80
80
80
80
80
80
80
80
00
80
80
ENDCHAR
STARTCHAR C001b
ENCODING 27
SWIDTH 432 0
DWIDTH 9 0
BBX 1 13 4 -1
BITMAP
80
80
80
80
80
80
80
80
80
80
00
80
80
ENDCHAR
STARTCHAR C001c
ENCODING 28
SWIDTH 432 0
DWIDTH 9 0
BBX 1 13 4 -1
BITMAP
80
80
80
80
80
80
80
80
80
80
00
80
80
ENDCHAR
STARTCHAR C001d
ENCODING 29
SWIDTH 432 0
DWIDTH 9 0
BBX 1 13 4 -1
BITMAP
80
80
80
80
80
80
80
80
80
80
00
80
80
ENDCHAR
STARTCHAR C001e
ENCODING 30
SWIDTH 432 0
DWIDTH 9 0
BBX 1 13 4 -1
BITMAP
80
80
80
80
80
80
80
80
80
80
00
80
80
ENDCHAR
STARTCHAR C001f
ENCODING 31
SWIDTH 432 0
DWIDTH 9 0
BBX 1 13 4 -1
BITMAP
80
80
80
80
80
80
80
80
80
80
00
80
80
ENDCHAR
STARTCHAR C0020
ENCODING 32
SWIDTH 432 0
DWIDTH 9 0
BBX 0 0 0 0
BITMAP
ENDCHAR
STARTCHAR C0021
ENCODING 33
SWIDTH 432 0
DWIDTH 9 0
BBX 1 13 4 -1
BITMAP
80
80
80
80
80
80
80
80
80
80
00
80
80
ENDCHAR
STARTCHAR C0022
ENCODING 34
SWIDTH 432 0
DWIDTH 9 0
BBX 5 4 2 8
BITMAP
88
88
88
88
ENDCHAR
STARTCHAR C0023
ENCODING 35
SWIDTH 432 0
DWIDTH 9 0
BBX 7 10 1 -1
BITMAP
28
28
28
FE
28
28
FE
28
28
28
ENDCHAR
STARTCHAR C0024
ENCODING 36
SWIDTH 432 0
DWIDTH 9 0
BBX 7 15 1 -2
BITMAP
10
38
54
92
90
90
50
38
14
12
12
92
54
38
10
ENDCHAR
STARTCHAR C0025
ENCODING 37
SWIDTH 432 0
DWIDTH 9 0
BBX 6 12 2 -1
BITMAP
44
A4
A8
48
10
10
20
20
48
54
94
88
ENDCHAR
STARTCHAR C0026
ENCODING 38
SWIDTH 432 0
DWIDTH 9 0
BBX 7 13 1 -1
BITMAP
30
48
48
48
30
30
50
4A
8A
84
84
4A
32
ENDCHAR
STARTCHAR C0027
ENCODING 39
SWIDTH 432 0
DWIDTH 9 0
BBX 1 4 4 8
BITMAP
80
80
80
80
ENDCHAR
STARTCHAR C0028
ENCODING 40
SWIDTH 432 0
DWIDTH 9 0
BBX 3 15 4 -2
BITMAP
20
40
40
40
80
80
80
80
80
80
80
40
40
40
20
ENDCHAR
STARTCHAR C0029
ENCODING 41
SWIDTH 432 0
DWIDTH 9 0
BBX 3 15 2 -2
BITMAP
80
40
40
40
20
20
20
20
20
20
20
40
40
40
80
ENDCHAR
STARTCHAR C002a
ENCODING 42
SWIDTH 432 0
DWIDTH 9 0
BBX 7 7 1 0
BITMAP
44
28
10
FE
10
28
44
ENDCHAR
STARTCHAR C002b
ENCODING 43
SWIDTH 432 0
DWIDTH 9 0
BBX 7 7 1 0
BITMAP
10
10
10
FE
10
10
10
ENDCHAR
STARTCHAR C002c
ENCODING 44
SWIDTH 432 0
DWIDTH 9 0
BBX 2 3 4 -2
BITMAP
C0
40
80
ENDCHAR
STARTCHAR C002d
ENCODING 45
SWIDTH 432 0
DWIDTH 9 0
BBX 7 1 1 3
BITMAP
FE
ENDCHAR
STARTCHAR C002e
ENCODING 46
SWIDTH 432 0
DWIDTH 9 0
BBX 1 2 4 -1
BITMAP
80
80
ENDCHAR
STARTCHAR C002f
ENCODING 47
SWIDTH 432 0
DWIDTH 9 0
BBX 6 12 2 -1
BITMAP
04
04
08
08
10
10
20
20
40
40
80
80
ENDCHAR
STARTCHAR C0030
ENCODING 48
SWIDTH 432 0
DWIDTH 9 0
BBX 7 13 1 -1
BITMAP
38
44
82
82
86
8A
92
A2
C2
82
82
44
38
ENDCHAR
STARTCHAR C0031
ENCODING 49
SWIDTH 432 0
DWIDTH 9 0
BBX 4 13 1 -1
BITMAP
10
30
50
90
10
10
10
10
10
10
10
10
10
ENDCHAR
STARTCHAR C0032
ENCODING 50
SWIDTH 432 0
DWIDTH 9 0
BBX 7 13 1 -1
BITMAP
38
44
82
82
02
02
04
08
10
20
40
80
FE
ENDCHAR
STARTCHAR C0033
ENCODING 51
SWIDTH 432 0
DWIDTH 9 0
BBX 7 13 1 -1
BITMAP
38
44
82
02
02
04
38
04
02
02
82
44
38
ENDCHAR
STARTCHAR C0034
ENCODING 52
SWIDTH 432 0
DWIDTH 9 0
BBX 7 13 1 -1
BITMAP
08
08
10
10
20
20
44
44
84
84
FE
04
04
ENDCHAR
STARTCHAR C0035
ENCODING 53
SWIDTH 432 0
DWIDTH 9 0
BBX 7 13 1 -1
BITMAP
FE
80
80
80
80
F8
04
02
02
02
82
44
38
ENDCHAR
STARTCHAR C0036
ENCODING 54
SWIDTH 432 0
DWIDTH 9 0
BBX 7 13 1 -1
BITMAP
1C
20
40
40
80
B8
C4
82
82
82
82
44
38
ENDCHAR
STARTCHAR C0037
ENCODING 55
SWIDTH 432 0
DWIDTH 9 0
BBX 7 13 1 -1
BITMAP
FE
02
02
02
04
04
04
08
08
08
10
10
10
ENDCHAR
STARTCHAR C0038
ENCODING 56
SWIDTH 432 0
DWIDTH 9 0
BBX 7 13 1 -1
BITMAP
38
44
82
82
82
44
38
44
82
82
82
44
38
ENDCHAR
STARTCHAR C0039
ENCODING 57
SWIDTH 432 0
DWIDTH 9 0
BBX 7 13 1 -1
BITMAP
38
44
82
82
82
82
46
3A
02
04
04
08
70
ENDCHAR
STARTCHAR C003a
ENCODING 58
SWIDTH 432 0
DWIDTH 9 0
BBX 1 9 4 -1
BITMAP
80
80
00
00
00
00
00
80
80
ENDCHAR
STARTCHAR C003b
ENCODING 59
SWIDTH 432 0
DWIDTH 9 0
BBX 2 10 3 -2
BITMAP
40
40
00
00
00
00
00
40
40
80
ENDCHAR
STARTCHAR C003c
ENCODING 60
SWIDTH 432 0
DWIDTH 9 0
BBX 5 9 2 -1
BITMAP
08
10
20
40
80
40
20
10
08
ENDCHAR
STARTCHAR C003d
ENCODING 61
SWIDTH 432 0
DWIDTH 9 0
BBX 7 5 1 1
BITMAP
FE
00
00
00
FE
ENDCHAR
STARTCHAR C003e
ENCODING 62
SWIDTH 432 0
DWIDTH 9 0
BBX 5 9 2 -1
BITMAP
80
40
20
10
08
10
20
40
80
ENDCHAR
STARTCHAR C003f
ENCODING 63
SWIDTH 432 0
DWIDTH 9 0
BBX 7 13 1 -1
BITMAP
38
44
82
82
02
04
08
10
10
10
00
10
10
ENDCHAR
STARTCHAR C0040
ENCODING 64
SWIDTH 432 0
DWIDTH 9 0
BBX 7 12 1 -1
BITMAP
38
44
82
9A
A6
A2
A2
A6
9A
80
42
3C
ENDCHAR
STARTCHAR C0041
ENCODING 65
SWIDTH 432 0
DWIDTH 9 0
BBX 7 13 1 -1
BITMAP
10
10
28
28
28
44
44
44
44
FE
82
82
82
ENDCHAR
STARTCHAR C0042
ENCODING 66
SWIDTH 432 0
DWIDTH 9 0
BBX 7 13 1 -1
BITMAP
F8
84
82
82
84
F8
84
82
82
82
82
84
F8
ENDCHAR
STARTCHAR C0043
ENCODING 67
SWIDTH 432 0
DWIDTH 9 0
BBX 7 13 1 -1
BITMAP
38
44
82
80
80
80
80
80
80
80
82
44
38
ENDCHAR
STARTCHAR C0044
ENCODING 68
SWIDTH 432 0
DWIDTH 9 0
BBX 7 13 1 -1
BITMAP
F8
84
82
82
82
82
82
82
82
82
82
84
F8
ENDCHAR
STARTCHAR C0045
ENCODING 69
SWIDTH 432 0
DWIDTH 9 0
BBX 7 13 1 -1
BITMAP
FE
80
80
80
80
80
F8
80
80
80
80
80
FE
ENDCHAR
STARTCHAR C0046
ENCODING 70
SWIDTH 432 0
DWIDTH 9 0
BBX 7 13 1 -1
BITMAP
FE
80
80
80
80
80
F8
80
80
80
80
80
80
ENDCHAR
STARTCHAR C0047
ENCODING 71
SWIDTH 432 0
DWIDTH 9 0
BBX 7 13 1 -1
BITMAP
38
44
82
80
80
80
80
8E
82
82
82
46
3A
ENDCHAR
STARTCHAR C0048
ENCODING 72
SWIDTH 432 0
DWIDTH 9 0
BBX 7 13 1 -1
BITMAP
82
82
82
82
82
82
FE
82
82
82
82
82
82
ENDCHAR
STARTCHAR C0049
ENCODING 73
SWIDTH 432 0
DWIDTH 9 0
BBX 3 13 3 -1
BITMAP
E0
40
40
40
40
40
40
40
40
40
40
40
E0
ENDCHAR
STARTCHAR C004a
ENCODING 74
SWIDTH 432 0
DWIDTH 9 0
BBX 7 13 1 -1
BITMAP
02
02
02
02
02
02
02
02
02
02
82
44
38
ENDCHAR
STARTCHAR C004b
ENCODING 75
SWIDTH 432 0
DWIDTH 9 0
BBX 7 13 1 -1
BITMAP
82
82
84
88
90
A0
C0
A0
90
88
84
82
82
ENDCHAR
STARTCHAR C004c
ENCODING 76
SWIDTH 432 0
DWIDTH 9 0
BBX 7 13 1 -1
BITMAP
80
80
80
80
80
80
80
80
80
80
80
80
FE
ENDCHAR
STARTCHAR C004d
ENCODING 77
SWIDTH 432 0
DWIDTH 9 0
BBX 7 13 1 -1
BITMAP
82
82
C6
C6
AA
AA
92
92
82
82
82
82
82
ENDCHAR
STARTCHAR C004e
ENCODING 78
SWIDTH 432 0
DWIDTH 9 0
BBX 7 13 1 -1
BITMAP
82
82
C2
C2
A2
A2
92
92
8A
8A
86
86
82
ENDCHAR
STARTCHAR C004f
ENCODING 79
SWIDTH 432 0
DWIDTH 9 0
BBX 7 13 1 -1
BITMAP
38
44
82
82
82
82
82
82
82
82
82
44
38
ENDCHAR
STARTCHAR C0050
ENCODING 80
SWIDTH 432 0
DWIDTH 9 0
BBX 7 13 1 -1
BITMAP
F8
84
82
82
82
82
84
F8
80
80
80
80
80
ENDCHAR
STARTCHAR C0051
ENCODING 81
SWIDTH 432 0
DWIDTH 9 0
BBX 7 13 1 -1
BITMAP
38
44
82
82
82
82
82
82
82
82
8A
44
3A
ENDCHAR
STARTCHAR C0052
ENCODING 82
SWIDTH 432 0
DWIDTH 9 0
BBX 7 13 1 -1
BITMAP
F8
84
82
82
82
82
84
F8
88
84
84
82
82
ENDCHAR
STARTCHAR C0053
ENCODING 83
SWIDTH 432 0
DWIDTH 9 0
BBX 7 13 1 -1
BITMAP
38
44
82
80
80
40
38
04
02
02
82
44
38
ENDCHAR
STARTCHAR C0054
ENCODING 84
SWIDTH 432 0
DWIDTH 9 0
BBX 7 13 1 -1
BITMAP
FE
10
10
10
10
10
10
10
10
10
10
10
10
ENDCHAR
STARTCHAR C0055
ENCODING 85
SWIDTH 432 0
DWIDTH 9 0
BBX 7 13 1 -1
BITMAP
82
82
82
82
82
82
82
82
82
82
82
44
38
ENDCHAR
STARTCHAR C0056
ENCODING 86
SWIDTH 432 0
DWIDTH 9 0
BBX 7 13 1 -1
BITMAP
82
82
82
82
44
44
44
44
28
28
28
10
10
ENDCHAR
STARTCHAR C0057
ENCODING 87
SWIDTH 432 0
DWIDTH 9 0
BBX 9 13 0 -1
BITMAP
8880
8880
8880
8880
8880
5500
5500
5500
5500
2200
2200
2200
2200
ENDCHAR
STARTCHAR C0058
ENCODING 88
SWIDTH 432 0
DWIDTH 9 0
BBX 7 13 1 -1
BITMAP
82
82
44
44
28
28
10
28
28
44
44
82
82
ENDCHAR
STARTCHAR C0059
ENCODING 89
SWIDTH 432 0
DWIDTH 9 0
BBX 7 13 1 -1
BITMAP
82
82
44
44
28
28
10
10
10
10
10
10
10
ENDCHAR
STARTCHAR C005a
ENCODING 90
SWIDTH 432 0
DWIDTH 9 0
BBX 7 13 1 -1
BITMAP
FE
02
02
02
04
08
10
20
40
80
80
80
FE
ENDCHAR
STARTCHAR C005b
ENCODING 91
SWIDTH 432 0
DWIDTH 9 0
BBX 3 15 4 -2
BITMAP
E0
80
80
80
80
80
80
80
80
80
80
80
80
80
E0
ENDCHAR
STARTCHAR C005c
ENCODING 92
SWIDTH 432 0
DWIDTH 9 0
BBX 6 12 2 -1
BITMAP
80
80
40
40
20
20
10
10
08
08
04
04
ENDCHAR
STARTCHAR C005d
ENCODING 93
SWIDTH 432 0
DWIDTH 9 0
BBX 3 15 2 -2
BITMAP
E0
20
20
20
20
20
20
20
20
20
20
20
20
20
E0
ENDCHAR
STARTCHAR C005e
ENCODING 94
SWIDTH 432 0
DWIDTH 9 0
BBX 7 4 1 8
BITMAP
10
28
44
82
ENDCHAR
STARTCHAR C005f
ENCODING 95
SWIDTH 432 0
DWIDTH 9 0
BBX 7 1 1 -1
BITMAP
FE
ENDCHAR
STARTCHAR C0060
ENCODING 96
SWIDTH 432 0
DWIDTH 9 0
BBX 3 3 3 9
BITMAP
80
40
20
ENDCHAR
STARTCHAR C0061
ENCODING 97
SWIDTH 432 0
DWIDTH 9 0
BBX 7 9 1 -1
BITMAP
3C
42
02
3E
42
82
82
46
3A
ENDCHAR
STARTCHAR C0062
ENCODING 98
SWIDTH 432 0
DWIDTH 9 0
BBX 7 13 1 -1
BITMAP
80
80
80
80
B8
C4
82
82
82
82
82
C4
B8
ENDCHAR
STARTCHAR C0063
ENCODING 99
SWIDTH 432 0
DWIDTH 9 0
BBX 7 9 1 -1
BITMAP
3C
42
80
80
80
80
80
42
3C
ENDCHAR
STARTCHAR C0064
ENCODING 100
SWIDTH 432 0
DWIDTH 9 0
BBX 7 13 1 -1
BITMAP
02
02
02
02
3A
46
82
82
82
82
82
46
3A
ENDCHAR
STARTCHAR C0065
ENCODING 101
SWIDTH 432 0
DWIDTH 9 0
BBX 7 9 1 -1
BITMAP
38
44
82
82
FE
80
80
42
3C
ENDCHAR
STARTCHAR C0066
ENCODING 102
SWIDTH 432 0
DWIDTH 9 0
BBX 6 13 2 -1
BITMAP
1C
20
20
20
F8
20
20
20
20
20
20
20
20
ENDCHAR
STARTCHAR C0067
ENCODING 103
SWIDTH 432 0
DWIDTH 9 0
BBX 7 13 1 -5
BITMAP
3A
46
82
82
82
82
82
46
3A
02
02
84
78
ENDCHAR
STARTCHAR C0068
ENCODING 104
SWIDTH 432 0
DWIDTH 9 0
BBX 7 13 1 -1
BITMAP
80
80
80
80
B8
C4
82
82
82
82
82
82
82
ENDCHAR
STARTCHAR C0069
ENCODING 105
SWIDTH 432 0
DWIDTH 9 0
BBX 2 12 3 -1
BITMAP
40
40
00
C0
40
40
40
40
40
40
40
40
ENDCHAR
STARTCHAR C006a
ENCODING 106
SWIDTH 432 0
DWIDTH 9 0
BBX 4 15 1 -4
BITMAP
10
10
00
10
10
10
10
10
10
10
10
10
10
10
E0
ENDCHAR
STARTCHAR C006b
ENCODING 107
SWIDTH 432 0
DWIDTH 9 0
BBX 7 13 1 -1
BITMAP
80
80
80
80
82
84
88
90
E0
90
88
84
82
ENDCHAR
STARTCHAR C006c
ENCODING 108
SWIDTH 432 0
DWIDTH 9 0
BBX 4 13 3 -1
BITMAP
C0
40
40
40
40
40
40
40
40
40
40
40
30
ENDCHAR
STARTCHAR C006d
ENCODING 109
SWIDTH 432 0
DWIDTH 9 0
BBX 7 9 1 -1
BITMAP
EC
92
92
92
92
92
92
92
92
ENDCHAR
STARTCHAR C006e
ENCODING 110
SWIDTH 432 0
DWIDTH 9 0
BBX 7 9 1 -1
BITMAP
B8
C4
82
82
82
82
82
82
82
ENDCHAR
STARTCHAR C006f
ENCODING 111
SWIDTH 432 0
DWIDTH 9 0
BBX 7 9 1 -1
BITMAP
38
44
82
82
82
82
82
44
38
ENDCHAR
STARTCHAR C0070
ENCODING 112
SWIDTH 432 0
DWIDTH 9 0
BBX 7 12 1 -4
BITMAP
B8
C4
82
82
82
82
82
C4
B8
80
80
80
ENDCHAR
STARTCHAR C0071
ENCODING 113
SWIDTH 432 0
DWIDTH 9 0
BBX 7 12 1 -4
BITMAP
3A
46
82
82
82
82
82
46
3A
02
02
02
ENDCHAR
STARTCHAR C0072
ENCODING 114
SWIDTH 432 0
DWIDTH 9 0
BBX 7 9 1 -1
BITMAP
9C
A2
C0
80
80
80
80
80
80
ENDCHAR
STARTCHAR C0073
ENCODING 115
SWIDTH 384 0
DWIDTH 8 0
BBX 7 9 1 -1
BITMAP
7C
82
80
80
7C
02
02
82
7C
ENDCHAR
STARTCHAR C0074
ENCODING 116
SWIDTH 432 0
DWIDTH 9 0
BBX 6 11 2 -1
BITMAP
20
20
F8
20
20
20
20
20
20
20
1C
ENDCHAR
STARTCHAR C0075
ENCODING 117
SWIDTH 432 0
DWIDTH 9 0
BBX 7 9 1 -1
BITMAP
82
82
82
82
82
82
82
46
3A
ENDCHAR
STARTCHAR C0076
ENCODING 118
SWIDTH 432 0
DWIDTH 9 0
BBX 7 9 1 -1
BITMAP
82
82
82
44
44
28
28
10
10
ENDCHAR
STARTCHAR C0077
ENCODING 119
SWIDTH 432 0
DWIDTH 9 0
BBX 7 9 1 -1
BITMAP
82
92
92
92
AA
AA
44
44
44
ENDCHAR
STARTCHAR C0078
ENCODING 120
SWIDTH 432 0
DWIDTH 9 0
BBX 7 9 1 -1
BITMAP
82
82
44
28
10
28
44
82
82
ENDCHAR
STARTCHAR C0079
ENCODING 121
SWIDTH 432 0
DWIDTH 9 0
BBX 7 12 1 -4
BITMAP
82
82
82
44
44
28
28
10
10
20
20
C0
ENDCHAR
STARTCHAR C007a
ENCODING 122
SWIDTH 432 0
DWIDTH 9 0
BBX 7 9 1 -1
BITMAP
FE
02
04
08
10
20
40
80
FE
ENDCHAR
STARTCHAR C007b
ENCODING 123
SWIDTH 432 0
DWIDTH 9 0
BBX 3 15 3 -2
BITMAP
20
40
40
40
40
40
40
80
40
40
40
40
40
40
20
ENDCHAR
STARTCHAR C007c
ENCODING 124
SWIDTH 432 0
DWIDTH 9 0
BBX 1 13 4 -1
BITMAP
80
80
80
80
80
80
80
80
80
80
80
80
80
ENDCHAR
STARTCHAR C007d
ENCODING 125
SWIDTH 432 0
DWIDTH 9 0
BBX 3 15 3 -2
BITMAP
80
40
40
40
40
40
40
20
40
40
40
40
40
40
80
ENDCHAR
STARTCHAR C007e
ENCODING 126
SWIDTH 432 0
DWIDTH 9 0
BBX 7 3 1 2
BITMAP
60
92
0C
ENDCHAR
STARTCHAR C007f
ENCODING 127
SWIDTH 432 0
DWIDTH 9 0
BBX 7 11 1 -2
BITMAP
10
3C
52
90
90
90
90
90
52
3C
10
ENDCHAR
STARTCHAR C0080
ENCODING 128
SWIDTH 432 0
DWIDTH 9 0
BBX 8 8 0 -1
BITMAP
81
5A
24
42
42
24
5A
81
ENDCHAR
STARTCHAR C0081
ENCODING 129
SWIDTH 432 0
DWIDTH 9 0
BBX 7 13 1 -1
BITMAP
82
82
44
44
28
28
10
10
7C
10
7C
10
10
ENDCHAR
STARTCHAR C0082
ENCODING 130
SWIDTH 432 0
DWIDTH 9 0
BBX 6 13 2 -1
BITMAP
78
84
80
40
30
48
84
48
30
08
04
84
78
ENDCHAR
STARTCHAR C0083
ENCODING 131
SWIDTH 432 0
DWIDTH 9 0
BBX 9 9 0 -1
BITMAP
3E00
4100
9C80
A280
A080
A280
9C80
4100
3E00
ENDCHAR
STARTCHAR C0084
ENCODING 132
SWIDTH 432 0
DWIDTH 9 0
BBX 5 7 2 6
BITMAP
70
08
78
88
78
00
F8
ENDCHAR
STARTCHAR C0085
ENCODING 133
SWIDTH 432 0
DWIDTH 9 0
BBX 7 7 1 0
BITMAP
12
24
48
90
48
24
12
ENDCHAR
STARTCHAR C0086
ENCODING 134
SWIDTH 432 0
DWIDTH 9 0
BBX 9 9 0 -1
BITMAP
3E00
4100
9C80
9280
9C80
9480
9280
4100
3E00
ENDCHAR
STARTCHAR C0087
ENCODING 135
SWIDTH 432 0
DWIDTH 9 0
BBX 5 7 2 6
BITMAP
70
88
08
10
20
40
F8
ENDCHAR
STARTCHAR C0088
ENCODING 136
SWIDTH 432 0
DWIDTH 9 0
BBX 1 13 4 -1
BITMAP
80
80
80
80
80
80
80
80
80
80
00
80
80
ENDCHAR
STARTCHAR C0089
ENCODING 137
SWIDTH 432 0
DWIDTH 9 0
BBX 8 12 1 -4
BITMAP
82
82
82
82
82
82
82
C6
B9
80
80
80
ENDCHAR
STARTCHAR C008a
ENCODING 138
SWIDTH 432 0
DWIDTH 9 0
BBX 6 13 1 -1
BITMAP
7C
F4
F4
F4
74
14
14
14
14
14
14
14
14
ENDCHAR
STARTCHAR C008b
ENCODING 139
SWIDTH 432 0
DWIDTH 9 0
BBX 5 7 2 6
BITMAP
70
88
88
88
70
00
F8
ENDCHAR
STARTCHAR C008c
ENCODING 140
SWIDTH 432 0
DWIDTH 9 0
BBX 7 7 1 0
BITMAP
90
48
24
12
24
48
90
ENDCHAR
STARTCHAR C008d
ENCODING 141
SWIDTH 432 0
DWIDTH 9 0
BBX 7 13 1 -1
BITMAP
20
60
A0
22
24
08
10
20
44
8C
14
1E
04
ENDCHAR
STARTCHAR C008e
ENCODING 142
SWIDTH 432 0
DWIDTH 9 0
BBX 1 13 4 -1
BITMAP
80
80
80
80
80
80
80
80
80
80
00
80
80
ENDCHAR
STARTCHAR C008f
ENCODING 143
SWIDTH 432 0
DWIDTH 9 0
BBX 1 13 4 -1
BITMAP
80
80
80
80
80
80
80
80
80
80
00
80
80
ENDCHAR
STARTCHAR C0090
ENCODING 144
SWIDTH 432 0
DWIDTH 9 0
BBX 1 13 4 -1
BITMAP
80
80
80
80
80
80
80
80
80
80
00
80
80
ENDCHAR
STARTCHAR C0091
ENCODING 145
SWIDTH 432 0
DWIDTH 9 0
BBX 1 13 4 -1
BITMAP
80
80
80
80
80
80
80
80
80
80
00
80
80
ENDCHAR
STARTCHAR C0092
ENCODING 146
SWIDTH 432 0
DWIDTH 9 0
BBX 1 13 4 -1
BITMAP
80
80
80
80
80
80
80
80
80
80
00
80
80
ENDCHAR
STARTCHAR C0093
ENCODING 147
SWIDTH 432 0
DWIDTH 9 0
BBX 1 13 4 -1
BITMAP
80
80
80
80
80
80
80
80
80
80
00
80
80
ENDCHAR
STARTCHAR C0094
ENCODING 148
SWIDTH 432 0
DWIDTH 9 0
BBX 1 13 4 -1
BITMAP
80
80
80
80
80
80
80
80
80
80
00
80
80
ENDCHAR
STARTCHAR C0095
ENCODING 149
SWIDTH 432 0
DWIDTH 9 0
BBX 1 13 4 -1
BITMAP
80
80
80
80
80
80
80
80
80
80
00
80
80
ENDCHAR
STARTCHAR C0096
ENCODING 150
SWIDTH 432 0
DWIDTH 9 0
BBX 1 13 4 -1
BITMAP
80
80
80
80
80
80
80
80
80
80
00
80
80
ENDCHAR
STARTCHAR C0097
ENCODING 151
SWIDTH 432 0
DWIDTH 9 0
BBX 1 13 4 -1
BITMAP
80
80
80
80
80
80
80
80
80
80
00
80
80
ENDCHAR
STARTCHAR C0098
ENCODING 152
SWIDTH 432 0
DWIDTH 9 0
BBX 1 13 4 -1
BITMAP
80
80
80
80
80
80
80
80
80
80
00
80
80
ENDCHAR
STARTCHAR C0099
ENCODING 153
SWIDTH 432 0
DWIDTH 9 0
BBX 1 13 4 -1
BITMAP
80
80
80
80
80
80
80
80
80
80
00
80
80
ENDCHAR
STARTCHAR C009a
ENCODING 154
SWIDTH 432 0
DWIDTH 9 0
BBX 1 13 4 -1
BITMAP
80
80
80
80
80
80
80
80
80
80
00
80
80
ENDCHAR
STARTCHAR C009b
ENCODING 155
SWIDTH 432 0
DWIDTH 9 0
BBX 1 13 4 -1
BITMAP
80
80
80
80
80
80
80
80
80
80
00
80
80
ENDCHAR
STARTCHAR C009c
ENCODING 156
SWIDTH 432 0
DWIDTH 9 0
BBX 1 13 4 -1
BITMAP
80
80
80
80
80
80
80
80
80
80
00
80
80
ENDCHAR
STARTCHAR C009d
ENCODING 157
SWIDTH 432 0
DWIDTH 9 0
BBX 1 13 4 -1
BITMAP
80
80
80
80
80
80
80
80
80
80
00
80
80
ENDCHAR
STARTCHAR C009e
ENCODING 158
SWIDTH 432 0
DWIDTH 9 0
BBX 1 13 4 -1
BITMAP
80
80
80
80
80
80
80
80
80
80
00
80
80
ENDCHAR
STARTCHAR C009f
ENCODING 159
SWIDTH 432 0
DWIDTH 9 0
BBX 1 13 4 -1
BITMAP
80
80
80
80
80
80
80
80
80
80
00
80
80
ENDCHAR
STARTCHAR C00a0
ENCODING 160
SWIDTH 432 0
DWIDTH 9 0
BBX 1 13 4 -1
BITMAP
80
80
80
80
80
80
80
80
80
80
00
80
80
ENDCHAR
STARTCHAR C00a1
ENCODING 161
SWIDTH 432 0
DWIDTH 9 0
BBX 1 13 4 -1
BITMAP
80
80
80
80
80
80
80
80
80
80
00
80
80
ENDCHAR
STARTCHAR C00a2
ENCODING 162
SWIDTH 432 0
DWIDTH 9 0
BBX 1 13 4 -1
BITMAP
80
80
80
80
80
80
80
80
80
80
00
80
80
ENDCHAR
STARTCHAR C00a3
ENCODING 163
SWIDTH 432 0
DWIDTH 9 0
BBX 1 13 4 -1
BITMAP
80
80
80
80
80
80
80
80
80
80
00
80
80
ENDCHAR
STARTCHAR C00a4
ENCODING 164
SWIDTH 432 0
DWIDTH 9 0
BBX 1 13 4 -1
BITMAP
80
80
80
80
80
80
00
80
80
80
80
80
80
ENDCHAR
STARTCHAR C00a5
ENCODING 165
SWIDTH 432 0
DWIDTH 9 0
BBX 1 13 4 -1
BITMAP
80
80
80
80
80
80
80
80
80
80
00
80
80
ENDCHAR
STARTCHAR C00a6
ENCODING 166
SWIDTH 432 0
DWIDTH 9 0
BBX 5 2 2 13
BITMAP
88
88
ENDCHAR
STARTCHAR C00a7
ENCODING 167
SWIDTH 432 0
DWIDTH 9 0
BBX 1 13 4 -1
BITMAP
80
80
80
80
80
80
80
80
80
80
00
80
80
ENDCHAR
STARTCHAR C00a8
ENCODING 168
SWIDTH 432 0
DWIDTH 9 0
BBX 1 13 4 -1
BITMAP
80
80
80
80
80
80
80
80
80
80
00
80
80
ENDCHAR
STARTCHAR C00a9
ENCODING 169
SWIDTH 432 0
DWIDTH 9 0
BBX 1 13 4 -1
BITMAP
80
80
80
80
80
80
80
80
80
80
00
80
80
ENDCHAR
STARTCHAR C00aa
ENCODING 170
SWIDTH 432 0
DWIDTH 9 0
BBX 7 3 1 1
BITMAP
FE
02
02
ENDCHAR
STARTCHAR C00ab
ENCODING 171
SWIDTH 432 0
DWIDTH 9 0
BBX 3 1 3 3
BITMAP
E0
ENDCHAR
STARTCHAR C00ac
ENCODING 172
SWIDTH 432 0
DWIDTH 9 0
BBX 1 13 4 -1
BITMAP
80
80
80
80
80
80
80
80
80
80
00
80
80
ENDCHAR
STARTCHAR C00ad
ENCODING 173
SWIDTH 432 0
DWIDTH 9 0
BBX 5 1 2 13
BITMAP
F8
ENDCHAR
STARTCHAR C00ae
ENCODING 174
SWIDTH 432 0
DWIDTH 9 0
BBX 1 13 4 -1
BITMAP
80
80
80
80
80
80
80
80
80
80
00
80
80
ENDCHAR
STARTCHAR C00af
ENCODING 175
SWIDTH 432 0
DWIDTH 9 0
BBX 1 13 4 -1
BITMAP
80
80
80
80
80
80
80
80
80
80
00
80
80
ENDCHAR
STARTCHAR C00b0
ENCODING 176
SWIDTH 432 0
DWIDTH 9 0
BBX 1 13 4 -1
BITMAP
80
80
80
80
80
80
80
80
80
80
00
80
80
ENDCHAR
STARTCHAR C00b1
ENCODING 177
SWIDTH 432 0
DWIDTH 9 0
BBX 5 7 2 6
BITMAP
70
88
08
30
08
88
70
ENDCHAR
STARTCHAR C00b2
ENCODING 178
SWIDTH 432 0
DWIDTH 9 0
BBX 3 3 3 9
BITMAP
20
40
80
ENDCHAR
STARTCHAR C00b3
ENCODING 179
SWIDTH 432 0
DWIDTH 9 0
BBX 1 13 4 -1
BITMAP
80
80
80
80
80
80
80
80
80
80
00
80
80
ENDCHAR
STARTCHAR C00b4
ENCODING 180
SWIDTH 432 0
DWIDTH 9 0
BBX 1 13 4 -1
BITMAP
80
80
80
80
80
80
80
80
80
80
00
80
80
ENDCHAR
STARTCHAR C00b5
ENCODING 181
SWIDTH 432 0
DWIDTH 9 0
BBX 1 2 4 3
BITMAP
80
80
ENDCHAR
STARTCHAR C00b6
ENCODING 182
SWIDTH 432 0
DWIDTH 9 0
BBX 3 3 3 -4
BITMAP
40
20
C0
ENDCHAR
STARTCHAR C00b7
ENCODING 183
SWIDTH 432 0
DWIDTH 9 0
BBX 3 7 2 6
BITMAP
20
60
A0
20
20
20
20
ENDCHAR
STARTCHAR C00b8
ENCODING 184
SWIDTH 432 0
DWIDTH 9 0
BBX 1 13 4 -1
BITMAP
80
80
80
80
80
80
80
80
80
80
00
80
80
ENDCHAR
STARTCHAR C00b9
ENCODING 185
SWIDTH 432 0
DWIDTH 9 0
BBX 1 13 4 -1
BITMAP
80
80
80
80
80
80
80
80
80
80
00
80
80
ENDCHAR
STARTCHAR C00ba
ENCODING 186
SWIDTH 432 0
DWIDTH 9 0
BBX 1 13 4 -1
BITMAP
80
80
80
80
80
80
80
80
80
80
00
80
80
ENDCHAR
STARTCHAR C00bb
ENCODING 187
SWIDTH 432 0
DWIDTH 9 0
BBX 7 13 1 -1
BITMAP
20
60
A0
22
24
08
10
20
4C
92
04
08
1E
ENDCHAR
STARTCHAR C00bc
ENCODING 188
SWIDTH 432 0
DWIDTH 9 0
BBX 7 13 1 -1
BITMAP
60
90
20
92
64
08
10
20
44
8C
14
1E
04
ENDCHAR
STARTCHAR C00bd
ENCODING 189
SWIDTH 432 0
DWIDTH 9 0
BBX 7 13 1 -1
BITMAP
10
10
00
10
10
10
20
40
80
82
82
44
38
ENDCHAR
STARTCHAR C00be
ENCODING 190
SWIDTH 432 0
DWIDTH 9 0
BBX 7 16 1 -1
BITMAP
20
10
00
10
10
28
28
28
44
44
44
44
FE
82
82
82
ENDCHAR
STARTCHAR C00bf
ENCODING 191
SWIDTH 432 0
DWIDTH 9 0
BBX 7 16 1 -1
BITMAP
08
10
00
10
10
28
28
28
44
44
44
44
FE
82
82
82
ENDCHAR
STARTCHAR C00c0
ENCODING 192
SWIDTH 432 0
DWIDTH 9 0
BBX 7 16 1 -1
BITMAP
10
28
00
10
10
28
28
28
44
44
44
44
FE
82
82
82
ENDCHAR
STARTCHAR C00c1
ENCODING 193
SWIDTH 432 0
DWIDTH 9 0
BBX 7 16 1 -1
BITMAP
66
98
00
10
10
28
28
28
44
44
44
44
FE
82
82
82
ENDCHAR
STARTCHAR C00c2
ENCODING 194
SWIDTH 432 0
DWIDTH 9 0
BBX 7 16 1 -1
BITMAP
44
44
00
10
10
28
28
28
44
44
44
44
FE
82
82
82
ENDCHAR
STARTCHAR C00c3
ENCODING 195
SWIDTH 432 0
DWIDTH 9 0
BBX 7 16 1 -1
BITMAP
10
28
10
00
10
28
28
28
44
44
44
44
FE
82
82
82
ENDCHAR
STARTCHAR C00c4
ENCODING 196
SWIDTH 432 0
DWIDTH 9 0
BBX 9 13 0 -1
BITMAP
1F80
2800
2800
2800
2800
4800
7F00
4800
4800
8800
8800
8800
8F80
ENDCHAR
STARTCHAR C00c5
ENCODING 197
SWIDTH 432 0
DWIDTH 9 0
BBX 7 16 1 -4
BITMAP
38
44
82
80
80
80
80
80
80
80
82
44
38
10
08
30
ENDCHAR
STARTCHAR C00c6
ENCODING 198
SWIDTH 432 0
DWIDTH 9 0
BBX 7 16 1 -1
BITMAP
20
10
00
FE
80
80
80
80
80
F8
80
80
80
80
80
FE
ENDCHAR
STARTCHAR C00c7
ENCODING 199
SWIDTH 432 0
DWIDTH 9 0
BBX 7 16 1 -1
BITMAP
08
10
00
FE
80
80
80
80
80
F8
80
80
80
80
80
FE
ENDCHAR
STARTCHAR C00c8
ENCODING 200
SWIDTH 432 0
DWIDTH 9 0
BBX 7 16 1 -1
BITMAP
10
28
00
FE
80
80
80
80
80
F8
80
80
80
80
80
FE
ENDCHAR
STARTCHAR C00c9
ENCODING 201
SWIDTH 432 0
DWIDTH 9 0
BBX 7 16 1 -1
BITMAP
44
44
00
FE
80
80
80
80
80
F8
80
80
80
80
80
FE
ENDCHAR
STARTCHAR C00ca
ENCODING 202
SWIDTH 432 0
DWIDTH 9 0
BBX 3 16 3 -1
BITMAP
80
40
00
E0
40
40
40
40
40
40
40
40
40
40
40
E0
ENDCHAR
STARTCHAR C00cb
ENCODING 203
SWIDTH 432 0
DWIDTH 9 0
BBX 3 16 3 -1
BITMAP
20
40
00
E0
40
40
40
40
40
40
40
40
40
40
40
E0
ENDCHAR
STARTCHAR C00cc
ENCODING 204
SWIDTH 432 0
DWIDTH 9 0
BBX 3 16 3 -1
BITMAP
40
A0
00
E0
40
40
40
40
40
40
40
40
40
40
40
E0
ENDCHAR
STARTCHAR C00cd
ENCODING 205
SWIDTH 432 0
DWIDTH 9 0
BBX 5 16 2 -1
BITMAP
88
88
00
70
20
20
20
20
20
20
20
20
20
20
20
70
ENDCHAR
STARTCHAR C00ce
ENCODING 206
SWIDTH 432 0
DWIDTH 9 0
BBX 8 13 0 -1
BITMAP
7C
42
41
41
41
41
F1
41
41
41
41
42
7C
ENDCHAR
STARTCHAR C00cf
ENCODING 207
SWIDTH 432 0
DWIDTH 9 0
BBX 7 16 1 -1
BITMAP
66
98
00
82
82
C2
C2
A2
A2
92
92
8A
8A
86
86
82
ENDCHAR
STARTCHAR C00d0
ENCODING 208
SWIDTH 432 0
DWIDTH 9 0
BBX 7 16 1 -1
BITMAP
20
10
00
38
44
82
82
82
82
82
82
82
82
82
44
38
ENDCHAR
STARTCHAR C00d1
ENCODING 209
SWIDTH 432 0
DWIDTH 9 0
BBX 7 16 1 -1
BITMAP
08
10
00
38
44
82
82
82
82
82
82
82
82
82
44
38
ENDCHAR
STARTCHAR C00d2
ENCODING 210
SWIDTH 432 0
DWIDTH 9 0
BBX 7 16 1 -1
BITMAP
10
28
00
38
44
82
82
82
82
82
82
82
82
82
44
38
ENDCHAR
STARTCHAR C00d3
ENCODING 211
SWIDTH 432 0
DWIDTH 9 0
BBX 7 16 1 -1
BITMAP
66
98
00
38
44
82
82
82
82
82
82
82
82
82
44
38
ENDCHAR
STARTCHAR C00d4
ENCODING 212
SWIDTH 432 0
DWIDTH 9 0
BBX 7 16 1 -1
BITMAP
44
44
00
38
44
82
82
82
82
82
82
82
82
82
44
38
ENDCHAR
STARTCHAR C00d5
ENCODING 213
SWIDTH 432 0
DWIDTH 9 0
BBX 7 7 1 0
BITMAP
82
44
28
10
28
44
82
ENDCHAR
STARTCHAR C00d6
ENCODING 214
SWIDTH 432 0
DWIDTH 9 0
BBX 9 13 0 -1
BITMAP
1C00
2200
4180
4100
4300
4500
4900
5100
6100
4100
C100
2200
1C00
ENDCHAR
STARTCHAR C00d7
ENCODING 215
SWIDTH 432 0
DWIDTH 9 0
BBX 7 16 1 -1
BITMAP
20
10
00
82
82
82
82
82
82
82
82
82
82
82
44
38
ENDCHAR
STARTCHAR C00d8
ENCODING 216
SWIDTH 432 0
DWIDTH 9 0
BBX 7 16 1 -1
BITMAP
08
10
00
82
82
82
82
82
82
82
82
82
82
82
44
38
ENDCHAR
STARTCHAR C00d9
ENCODING 217
SWIDTH 432 0
DWIDTH 9 0
BBX 7 16 1 -1
BITMAP
10
28
00
82
82
82
82
82
82
82
82
82
82
82
44
38
ENDCHAR
STARTCHAR C00da
ENCODING 218
SWIDTH 432 0
DWIDTH 9 0
BBX 7 16 1 -1
BITMAP
44
44
00
82
82
82
82
82
82
82
82
82
82
82
44
38
ENDCHAR
STARTCHAR C00db
ENCODING 219
SWIDTH 432 0
DWIDTH 9 0
BBX 7 16 1 -1
BITMAP
08
10
00
82
82
44
44
28
28
10
10
10
10
10
10
10
ENDCHAR
STARTCHAR C00dc
ENCODING 220
SWIDTH 432 0
DWIDTH 9 0
BBX 7 13 1 -1
BITMAP
80
80
80
80
F8
84
82
82
82
84
F8
80
80
ENDCHAR
STARTCHAR C00dd
ENCODING 221
SWIDTH 432 0
DWIDTH 9 0
BBX 7 13 1 -1
BITMAP
30
48
84
84
88
B0
88
84
82
82
82
A4
98
ENDCHAR
STARTCHAR C00de
ENCODING 222
SWIDTH 432 0
DWIDTH 9 0
BBX 7 12 1 -1
BITMAP
20
10
00
3C
42
02
3E
42
82
82
46
3A
ENDCHAR
STARTCHAR C00df
ENCODING 223
SWIDTH 432 0
DWIDTH 9 0
BBX 7 12 1 -1
BITMAP
08
10
00
3C
42
02
3E
42
82
82
46
3A
ENDCHAR
STARTCHAR C00e0
ENCODING 224
SWIDTH 432 0
DWIDTH 9 0
BBX 7 12 1 -1
BITMAP
10
28
00
3C
42
02
3E
42
82
82
46
3A
ENDCHAR
STARTCHAR C00e1
ENCODING 225
SWIDTH 432 0
DWIDTH 9 0
BBX 7 12 1 -1
BITMAP
66
98
00
3C
42
02
3E
42
82
82
46
3A
ENDCHAR
STARTCHAR C00e2
ENCODING 226
SWIDTH 432 0
DWIDTH 9 0
BBX 7 12 1 -1
BITMAP
44
44
00
3C
42
02
3E
42
82
82
46
3A
ENDCHAR
STARTCHAR C00e3
ENCODING 227
SWIDTH 432 0
DWIDTH 9 0
BBX 7 13 1 -1
BITMAP
10
28
10
00
3C
42
02
3E
42
82
82
46
3A
ENDCHAR
STARTCHAR C00e4
ENCODING 228
SWIDTH 432 0
DWIDTH 9 0
BBX 9 9 0 -1
BITMAP
7700
8880
0880
0880
7F00
8800
8800
8880
7700
ENDCHAR
STARTCHAR C00e5
ENCODING 229
SWIDTH 432 0
DWIDTH 9 0
BBX 7 12 1 -4
BITMAP
3C
42
80
80
80
80
80
42
3C
10
08
30
ENDCHAR
STARTCHAR C00e6
ENCODING 230
SWIDTH 432 0
DWIDTH 9 0
BBX 7 12 1 -1
BITMAP
20
10
00
38
44
82
82
FE
80
80
42
3C
ENDCHAR
STARTCHAR C00e7
ENCODING 231
SWIDTH 432 0
DWIDTH 9 0
BBX 7 12 1 -1
BITMAP
08
10
00
38
44
82
82
FE
80
80
42
3C
ENDCHAR
STARTCHAR C00e8
ENCODING 232
SWIDTH 432 0
DWIDTH 9 0
BBX 7 12 1 -1
BITMAP
10
28
00
38
44
82
82
FE
80
80
42
3C
ENDCHAR
STARTCHAR C00e9
ENCODING 233
SWIDTH 432 0
DWIDTH 9 0
BBX 7 12 1 -1
BITMAP
44
44
00
38
44
82
82
FE
80
80
42
3C
ENDCHAR
STARTCHAR C00ea
ENCODING 234
SWIDTH 432 0
DWIDTH 9 0
BBX 2 12 3 -1
BITMAP
80
40
00
C0
40
40
40
40
40
40
40
40
ENDCHAR
STARTCHAR C00eb
ENCODING 235
SWIDTH 432 0
DWIDTH 9 0
BBX 3 12 3 -1
BITMAP
20
40
00
C0
40
40
40
40
40
40
40
40
ENDCHAR
STARTCHAR C00ec
ENCODING 236
SWIDTH 432 0
DWIDTH 9 0
BBX 3 12 3 -1
BITMAP
40
A0
00
C0
40
40
40
40
40
40
40
40
ENDCHAR
STARTCHAR C00ed
ENCODING 237
SWIDTH 432 0
DWIDTH 9 0
BBX 5 12 2 -1
BITMAP
88
88
00
60
20
20
20
20
20
20
20
20
ENDCHAR
STARTCHAR C00ee
ENCODING 238
SWIDTH 432 0
DWIDTH 9 0
BBX 7 14 1 -1
BITMAP
50
20
50
08
04
3C
42
82
82
82
82
82
44
38
ENDCHAR
STARTCHAR C00ef
ENCODING 239
SWIDTH 432 0
DWIDTH 9 0
BBX 7 12 1 -1
BITMAP
66
98
00
B8
C4
82
82
82
82
82
82
82
ENDCHAR
STARTCHAR C00f0
ENCODING 240
SWIDTH 432 0
DWIDTH 9 0
BBX 7 12 1 -1
BITMAP
20
10
00
38
44
82
82
82
82
82
44
38
ENDCHAR
STARTCHAR C00f1
ENCODING 241
SWIDTH 432 0
DWIDTH 9 0
BBX 7 12 1 -1
BITMAP
08
10
00
38
44
82
82
82
82
82
44
38
ENDCHAR
STARTCHAR C00f2
ENCODING 242
SWIDTH 432 0
DWIDTH 9 0
BBX 7 12 1 -1
BITMAP
10
28
00
38
44
82
82
82
82
82
44
38
ENDCHAR
STARTCHAR C00f3
ENCODING 243
SWIDTH 432 0
DWIDTH 9 0
BBX 7 12 1 -1
BITMAP
66
98
00
38
44
82
82
82
82
82
44
38
ENDCHAR
STARTCHAR C00f4
ENCODING 244
SWIDTH 432 0
DWIDTH 9 0
BBX 7 12 1 -1
BITMAP
44
44
00
38
44
82
82
82
82
82
44
38
ENDCHAR
STARTCHAR C00f5
ENCODING 245
SWIDTH 432 0
DWIDTH 9 0
BBX 7 7 1 0
BITMAP
10
10
00
FE
00
10
10
ENDCHAR
STARTCHAR C00f6
ENCODING 246
SWIDTH 432 0
DWIDTH 9 0
BBX 9 9 0 -1
BITMAP
1C80
2300
4300
4500
4900
5100
6100
6200
9C00
ENDCHAR
STARTCHAR C00f7
ENCODING 247
SWIDTH 432 0
DWIDTH 9 0
BBX 7 12 1 -1
BITMAP
20
10
00
82
82
82
82
82
82
82
46
3A
ENDCHAR
STARTCHAR C00f8
ENCODING 248
SWIDTH 432 0
DWIDTH 9 0
BBX 7 12 1 -1
BITMAP
08
10
00
82
82
82
82
82
82
82
46
3A
ENDCHAR
STARTCHAR C00f9
ENCODING 249
SWIDTH 432 0
DWIDTH 9 0
BBX 7 12 1 -1
BITMAP
10
28
00
82
82
82
82
82
82
82
46
3A
ENDCHAR
STARTCHAR C00fa
ENCODING 250
SWIDTH 432 0
DWIDTH 9 0
BBX 7 12 1 -1
BITMAP
44
44
00
82
82
82
82
82
82
82
46
3A
ENDCHAR
STARTCHAR C00fb
ENCODING 251
SWIDTH 432 0
DWIDTH 9 0
BBX 7 15 1 -4
BITMAP
08
10
00
82
82
82
44
44
28
28
10
10
20
20
C0
ENDCHAR
STARTCHAR C00fc
ENCODING 252
SWIDTH 432 0
DWIDTH 9 0
BBX 7 17 1 -5
BITMAP
80
80
80
80
B8
C4
82
82
82
82
82
C4
B8
80
80
80
80
ENDCHAR
STARTCHAR C00fd
ENCODING 253
SWIDTH 432 0
DWIDTH 9 0
BBX 7 15 1 -4
BITMAP
44
44
00
82
82
82
44
44
28
28
10
10
20
20
C0
ENDCHAR
STARTCHAR C00fe
ENCODING 254
SWIDTH 432 0
DWIDTH 9 0
BBX 7 15 1 -1
BITMAP
7C
00
10
10
28
28
28
44
44
44
44
FE
82
82
82
ENDCHAR
STARTCHAR C00ff
ENCODING 255
SWIDTH 432 0
DWIDTH 9 0
BBX 7 11 1 -1
BITMAP
7C
00
3C
42
02
3E
42
82
82
46
3A
ENDCHAR
STARTCHAR C0100
ENCODING 256
SWIDTH 432 0
DWIDTH 9 0
BBX 7 16 1 -1
BITMAP
44
38
00
10
10
28
28
28
44
44
44
44
FE
82
82
82
ENDCHAR
STARTCHAR C0101
ENCODING 257
SWIDTH 432 0
DWIDTH 9 0
BBX 7 12 1 -1
BITMAP
44
38
00
3C
42
02
3E
42
82
82
46
3A
ENDCHAR
STARTCHAR C0102
ENCODING 258
SWIDTH 432 0
DWIDTH 9 0
BBX 8 16 1 -4
BITMAP
10
10
28
28
28
44
44
44
44
FE
82
82
82
02
04
03
ENDCHAR
STARTCHAR C0103
ENCODING 259
SWIDTH 432 0
DWIDTH 9 0
BBX 8 12 1 -4
BITMAP
3C
42
02
3E
42
82
82
46
3A
02
04
03
ENDCHAR
STARTCHAR C0104
ENCODING 260
SWIDTH 432 0
DWIDTH 9 0
BBX 7 16 1 -1
BITMAP
08
10
00
38
44
82
80
80
80
80
80
80
80
82
44
38
ENDCHAR
STARTCHAR C0105
ENCODING 261
SWIDTH 432 0
DWIDTH 9 0
BBX 7 12 1 -1
BITMAP
08
10
00
3C
42
80
80
80
80
80
42
3C
ENDCHAR
STARTCHAR C0106
ENCODING 262
SWIDTH 432 0
DWIDTH 9 0
BBX 7 16 1 -1
BITMAP
10
28
00
38
44
82
80
80
80
80
80
80
80
82
44
38
ENDCHAR
STARTCHAR C0107
ENCODING 263
SWIDTH 432 0
DWIDTH 9 0
BBX 7 12 1 -1
BITMAP
10
28
00
3C
42
80
80
80
80
80
42
3C
ENDCHAR
STARTCHAR C0108
ENCODING 264
SWIDTH 432 0
DWIDTH 9 0
BBX 7 16 1 -1
BITMAP
10
10
00
38
44
82
80
80
80
80
80
80
80
82
44
38
ENDCHAR
STARTCHAR C0109
ENCODING 265
SWIDTH 432 0
DWIDTH 9 0
BBX 7 12 1 -1
BITMAP
10
10
00
3C
42
80
80
80
80
80
42
3C
ENDCHAR
STARTCHAR C010a
ENCODING 266
SWIDTH 432 0
DWIDTH 9 0
BBX 7 16 1 -1
BITMAP
28
10
00
38
44
82
80
80
80
80
80
80
80
82
44
38
ENDCHAR
STARTCHAR C010b
ENCODING 267
SWIDTH 432 0
DWIDTH 9 0
BBX 7 12 1 -1
BITMAP
28
10
00
3C
42
80
80
80
80
80
42
3C
ENDCHAR
STARTCHAR C010c
ENCODING 268
SWIDTH 432 0
DWIDTH 9 0
BBX 7 16 1 -1
BITMAP
28
10
00
F8
84
82
82
82
82
82
82
82
82
82
84
F8
ENDCHAR
STARTCHAR C010d
ENCODING 269
SWIDTH 432 0
DWIDTH 9 0
BBX 9 13 0 -1
BITMAP
0580
0480
0500
0400
3400
4C00
8400
8400
8400
8400
8400
4C00
3400
ENDCHAR
STARTCHAR C010e
ENCODING 270
SWIDTH 432 0
DWIDTH 9 0
BBX 8 13 0 -1
BITMAP
7C
42
41
41
41
41
F1
41
41
41
41
42
7C
ENDCHAR
STARTCHAR C010f
ENCODING 271
SWIDTH 432 0
DWIDTH 9 0
BBX 8 13 1 -1
BITMAP
02
02
0F
02
3A
46
82
82
82
82
82
46
3A
ENDCHAR
STARTCHAR C0110
ENCODING 272
SWIDTH 432 0
DWIDTH 9 0
BBX 7 15 1 -1
BITMAP
7C
00
FE
80
80
80
80
80
F8
80
80
80
80
80
FE
ENDCHAR
STARTCHAR C0111
ENCODING 273
SWIDTH 432 0
DWIDTH 9 0
BBX 7 11 1 -1
BITMAP
7C
00
38
44
82
82
FE
80
80
42
3C
ENDCHAR
STARTCHAR C0112
ENCODING 274
SWIDTH 432 0
DWIDTH 9 0
BBX 7 16 1 -1
BITMAP
44
38
00
FE
80
80
80
80
80
F8
80
80
80
80
80
FE
ENDCHAR
STARTCHAR C0113
ENCODING 275
SWIDTH 432 0
DWIDTH 9 0
BBX 7 12 1 -1
BITMAP
44
38
00
38
44
82
82
FE
80
80
42
3C
ENDCHAR
STARTCHAR C0114
ENCODING 276
SWIDTH 432 0
DWIDTH 9 0
BBX 7 16 1 -1
BITMAP
10
10
00
FE
80
80
80
80
80
F8
80
80
80
80
80
FE
ENDCHAR
STARTCHAR C0115
ENCODING 277
SWIDTH 432 0
DWIDTH 9 0
BBX 7 12 1 -1
BITMAP
10
10
00
38
44
82
82
FE
80
80
42
3C
ENDCHAR
STARTCHAR C0116
ENCODING 278
SWIDTH 432 0
DWIDTH 9 0
BBX 8 16 1 -4
BITMAP
FE
80
80
80
80
80
F8
80
80
80
80
80
FE
02
04
03
ENDCHAR
STARTCHAR C0117
ENCODING 279
SWIDTH 432 0
DWIDTH 9 0
BBX 7 12 1 -4
BITMAP
38
44
82
82
FE
80
80
42
3C
10
20
18
ENDCHAR
STARTCHAR C0118
ENCODING 280
SWIDTH 432 0
DWIDTH 9 0
BBX 7 16 1 -1
BITMAP
28
10
00
FE
80
80
80
80
80
F8
80
80
80
80
80
FE
ENDCHAR
STARTCHAR C0119
ENCODING 281
SWIDTH 432 0
DWIDTH 9 0
BBX 7 12 1 -1
BITMAP
28
10
00
38
44
82
82
FE
80
80
42
3C
ENDCHAR
STARTCHAR C011a
ENCODING 282
SWIDTH 432 0
DWIDTH 9 0
BBX 7 16 1 -1
BITMAP
10
28
00
38
44
82
80
80
80
80
8E
82
82
82
46
3A
ENDCHAR
STARTCHAR C011b
ENCODING 283
SWIDTH 432 0
DWIDTH 9 0
BBX 7 16 1 -5
BITMAP
10
28
00
3A
46
82
82
82
82
82
46
3A
02
02
84
78
ENDCHAR
STARTCHAR C011c
ENCODING 284
SWIDTH 432 0
DWIDTH 9 0
BBX 7 16 1 -1
BITMAP
44
38
00
38
44
82
80
80
80
80
8E
82
82
82
46
3A
ENDCHAR
STARTCHAR C011d
ENCODING 285
SWIDTH 432 0
DWIDTH 9 0
BBX 7 16 1 -5
BITMAP
44
38
00
3A
46
82
82
82
82
82
46
3A
02
02
84
78
ENDCHAR
STARTCHAR C011e
ENCODING 286
SWIDTH 432 0
DWIDTH 9 0
BBX 7 16 1 -1
BITMAP
10
10
00
38
44
82
80
80
80
80
8E
82
82
82
46
3A
ENDCHAR
STARTCHAR C011f
ENCODING 287
SWIDTH 432 0
DWIDTH 9 0
BBX 7 16 1 -5
BITMAP
10
10
00
3A
46
82
82
82
82
82
46
3A
02
02
84
78
ENDCHAR
STARTCHAR C0120
ENCODING 288
SWIDTH 432 0
DWIDTH 9 0
BBX 7 17 1 -5
BITMAP
38
44
82
80
80
80
80
8E
82
82
82
46
3A
00
18
08
10
ENDCHAR
STARTCHAR C0121
ENCODING 289
SWIDTH 432 0
DWIDTH 9 0
BBX 7 17 1 -5
BITMAP
08
10
18
00
3A
46
82
82
82
82
82
46
3A
02
02
84
78
ENDCHAR
STARTCHAR C0122
ENCODING 290
SWIDTH 432 0
DWIDTH 9 0
BBX 7 16 1 -1
BITMAP
10
28
00
82
82
82
82
82
82
FE
82
82
82
82
82
82
ENDCHAR
STARTCHAR C0123
ENCODING 291
SWIDTH 432 0
DWIDTH 9 0
BBX 8 16 0 -1
BITMAP
40
A0
00
40
40
40
40
5C
62
41
41
41
41
41
41
41
ENDCHAR
STARTCHAR C0124
ENCODING 292
SWIDTH 432 0
DWIDTH 9 0
BBX 9 13 0 -1
BITMAP
4100
4100
FF80
4100
4100
4100
7F00
4100
4100
4100
4100
4100
4100
ENDCHAR
STARTCHAR C0125
ENCODING 293
SWIDTH 432 0
DWIDTH 9 0
BBX 8 13 0 -1
BITMAP
40
40
F0
40
5C
62
41
41
41
41
41
41
41
ENDCHAR
STARTCHAR C0126
ENCODING 294
SWIDTH 432 0
DWIDTH 9 0
BBX 7 16 1 -1
BITMAP
66
98
00
38
10
10
10
10
10
10
10
10
10
10
10
38
ENDCHAR
STARTCHAR C0127
ENCODING 295
SWIDTH 432 0
DWIDTH 9 0
BBX 7 12 1 -1
BITMAP
66
98
00
30
10
10
10
10
10
10
10
10
ENDCHAR
STARTCHAR C0128
ENCODING 296
SWIDTH 432 0
DWIDTH 9 0
BBX 5 15 2 -1
BITMAP
F8
00
70
20
20
20
20
20
20
20
20
20
20
20
70
ENDCHAR
STARTCHAR C0129
ENCODING 297
SWIDTH 432 0
DWIDTH 9 0
BBX 5 11 2 -1
BITMAP
F8
00
60
20
20
20
20
20
20
20
20
ENDCHAR
STARTCHAR C012a
ENCODING 298
SWIDTH 432 0
DWIDTH 9 0
BBX 5 16 2 -1
BITMAP
88
70
00
70
20
20
20
20
20
20
20
20
20
20
20
70
ENDCHAR
STARTCHAR C012b
ENCODING 299
SWIDTH 432 0
DWIDTH 9 0
BBX 5 12 2 -1
BITMAP
88
70
00
60
20
20
20
20
20
20
20
20
ENDCHAR
STARTCHAR C012c
ENCODING 300
SWIDTH 432 0
DWIDTH 9 0
BBX 3 16 3 -4
BITMAP
E0
40
40
40
40
40
40
40
40
40
40
40
E0
40
80
60
ENDCHAR
STARTCHAR C012d
ENCODING 301
SWIDTH 432 0
DWIDTH 9 0
BBX 3 15 3 -4
BITMAP
40
40
00
C0
40
40
40
40
40
40
40
40
40
80
60
ENDCHAR
STARTCHAR C012e
ENCODING 302
SWIDTH 432 0
DWIDTH 9 0
BBX 3 16 3 -1
BITMAP
40
40
00
E0
40
40
40
40
40
40
40
40
40
40
40
E0
ENDCHAR
STARTCHAR C012f
ENCODING 303
SWIDTH 432 0
DWIDTH 9 0
BBX 2 9 3 -1
BITMAP
C0
40
40
40
40
40
40
40
40
ENDCHAR
STARTCHAR C0130
ENCODING 304
SWIDTH 432 0
DWIDTH 9 0
BBX 8 13 0 -1
BITMAP
E1
41
41
41
41
41
41
41
41
51
51
4A
E4
ENDCHAR
STARTCHAR C0131
ENCODING 305
SWIDTH 432 0
DWIDTH 9 0
BBX 7 15 1 -4
BITMAP
42
42
00
C2
42
42
42
42
42
42
42
42
02
02
1C
ENDCHAR
STARTCHAR C0132
ENCODING 306
SWIDTH 432 0
DWIDTH 9 0
BBX 8 16 1 -1
BITMAP
02
05
00
02
02
02
02
02
02
02
02
02
02
82
44
38
ENDCHAR
STARTCHAR C0133
ENCODING 307
SWIDTH 432 0
DWIDTH 9 0
BBX 5 15 1 -4
BITMAP
10
28
00
10
10
10
10
10
10
10
10
10
10
10
E0
ENDCHAR
STARTCHAR C0134
ENCODING 308
SWIDTH 432 0
DWIDTH 9 0
BBX 7 16 1 -4
BITMAP
82
82
84
88
90
A0
C0
A0
90
88
84
82
82
10
08
30
ENDCHAR
STARTCHAR C0135
ENCODING 309
SWIDTH 432 0
DWIDTH 9 0
BBX 7 16 1 -4
BITMAP
80
80
80
80
82
84
88
90
E0
90
88
84
82
10
08
30
ENDCHAR
STARTCHAR C0136
ENCODING 310
SWIDTH 432 0
DWIDTH 9 0
BBX 7 9 1 -1
BITMAP
82
84
88
90
E0
90
88
84
82
ENDCHAR
STARTCHAR C0137
ENCODING 311
SWIDTH 432 0
DWIDTH 9 0
BBX 7 16 1 -1
BITMAP
40
80
00
80
80
80
80
80
80
80
80
80
80
80
80
FE
ENDCHAR
STARTCHAR C0138
ENCODING 312
SWIDTH 432 0
DWIDTH 9 0
BBX 4 16 3 -1
BITMAP
20
40
00
C0
40
40
40
40
40
40
40
40
40
40
40
30
ENDCHAR
STARTCHAR C0139
ENCODING 313
SWIDTH 432 0
DWIDTH 9 0
BBX 7 16 1 -4
BITMAP
80
80
80
80
80
80
80
80
80
80
80
80
FE
10
08
30
ENDCHAR
STARTCHAR C013a
ENCODING 314
SWIDTH 432 0
DWIDTH 9 0
BBX 4 16 3 -4
BITMAP
C0
40
40
40
40
40
40
40
40
40
40
40
30
20
10
60
ENDCHAR
STARTCHAR C013b
ENCODING 315
SWIDTH 432 0
DWIDTH 9 0
BBX 8 16 0 -1
BITMAP
A0
40
00
40
40
40
40
40
40
40
40
40
40
40
40
7F
ENDCHAR
STARTCHAR C013c
ENCODING 316
SWIDTH 432 0
DWIDTH 9 0
BBX 4 16 3 -1
BITMAP
A0
40
00
C0
40
40
40
40
40
40
40
40
40
40
40
30
ENDCHAR
STARTCHAR C013d
ENCODING 317
SWIDTH 432 0
DWIDTH 9 0
BBX 7 13 1 -1
BITMAP
80
80
80
80
80
84
84
80
80
80
80
80
FE
ENDCHAR
STARTCHAR C013e
ENCODING 318
SWIDTH 432 0
DWIDTH 9 0
BBX 5 13 3 -1
BITMAP
C0
40
40
40
40
48
48
40
40
40
40
40
30
ENDCHAR
STARTCHAR C013f
ENCODING 319
SWIDTH 432 0
DWIDTH 9 0
BBX 9 13 0 -1
BITMAP
2000
2000
2000
2000
2800
3000
2000
6000
A000
2000
2000
2000
3F80
ENDCHAR
STARTCHAR C0140
ENCODING 320
SWIDTH 432 0
DWIDTH 9 0
BBX 5 13 2 -1
BITMAP
60
20
20
20
28
30
20
60
A0
20
20
20
18
ENDCHAR
STARTCHAR C0141
ENCODING 321
SWIDTH 432 0
DWIDTH 9 0
BBX 7 16 1 -1
BITMAP
08
10
00
82
82
C2
C2
A2
A2
92
92
8A
8A
86
86
82
ENDCHAR
STARTCHAR C0142
ENCODING 322
SWIDTH 432 0
DWIDTH 9 0
BBX 7 12 1 -1
BITMAP
08
10
00
B8
C4
82
82
82
82
82
82
82
ENDCHAR
STARTCHAR C0143
ENCODING 323
SWIDTH 432 0
DWIDTH 9 0
BBX 7 16 1 -4
BITMAP
82
82
C2
C2
A2
A2
92
92
8A
8A
86
86
82
10
08
30
ENDCHAR
STARTCHAR C0144
ENCODING 324
SWIDTH 432 0
DWIDTH 9 0
BBX 7 12 1 -4
BITMAP
B8
C4
82
82
82
82
82
82
82
10
08
30
ENDCHAR
STARTCHAR C0145
ENCODING 325
SWIDTH 432 0
DWIDTH 9 0
BBX 7 16 1 -1
BITMAP
28
10
00
82
82
C2
C2
A2
A2
92
92
8A
8A
86
86
82
ENDCHAR
STARTCHAR C0146
ENCODING 326
SWIDTH 432 0
DWIDTH 9 0
BBX 7 12 1 -1
BITMAP
28
10
00
B8
C4
82
82
82
82
82
82
82
ENDCHAR
STARTCHAR C0147
ENCODING 327
SWIDTH 432 0
DWIDTH 9 0
BBX 8 13 0 -1
BITMAP
C0
40
80
00
5C
62
41
41
41
41
41
41
41
ENDCHAR
STARTCHAR C0148
ENCODING 328
SWIDTH 432 0
DWIDTH 9 0
BBX 7 16 1 -4
BITMAP
82
82
C2
C2
A2
A2
92
92
8A
8A
86
86
82
02
02
0C
ENDCHAR
STARTCHAR C0149
ENCODING 329
SWIDTH 432 0
DWIDTH 9 0
BBX 7 12 1 -4
BITMAP
B8
C4
82
82
82
82
82
82
82
02
02
0C
ENDCHAR
STARTCHAR C014a
ENCODING 330
SWIDTH 432 0
DWIDTH 9 0
BBX 7 15 1 -1
BITMAP
7C
00
38
44
82
82
82
82
82
82
82
82
82
44
38
ENDCHAR
STARTCHAR C014b
ENCODING 331
SWIDTH 432 0
DWIDTH 9 0
BBX 7 11 1 -1
BITMAP
7C
00
38
44
82
82
82
82
82
44
38
ENDCHAR
STARTCHAR C014c
ENCODING 332
SWIDTH 432 0
DWIDTH 9 0
BBX 7 16 1 -1
BITMAP
44
38
00
38
44
82
82
82
82
82
82
82
82
82
44
38
ENDCHAR
STARTCHAR C014d
ENCODING 333
SWIDTH 432 0
DWIDTH 9 0
BBX 7 12 1 -1
BITMAP
44
38
00
38
44
82
82
82
82
82
44
38
ENDCHAR
STARTCHAR C014e
ENCODING 334
SWIDTH 432 0
DWIDTH 9 0
BBX 7 16 1 -1
BITMAP
24
48
00
38
44
82
82
82
82
82
82
82
82
82
44
38
ENDCHAR
STARTCHAR C014f
ENCODING 335
SWIDTH 432 0
DWIDTH 9 0
BBX 7 12 1 -1
BITMAP
24
48
00
38
44
82
82
82
82
82
44
38
ENDCHAR
STARTCHAR C0150
ENCODING 336
SWIDTH 432 0
DWIDTH 9 0
BBX 9 13 0 -1
BITMAP
3F80
4800
8800
8800
8800
8800
8F00
8800
8800
8800
8800
4800
3F80
ENDCHAR
STARTCHAR C0151
ENCODING 337
SWIDTH 432 0
DWIDTH 9 0
BBX 9 9 0 -1
BITMAP
3E00
4900
8880
8880
8F80
8800
8800
4880
3F00
ENDCHAR
STARTCHAR C0152
ENCODING 338
SWIDTH 432 0
DWIDTH 9 0
BBX 7 16 1 -1
BITMAP
10
20
00
F8
84
82
82
82
82
84
F8
88
84
84
82
82
ENDCHAR
STARTCHAR C0153
ENCODING 339
SWIDTH 432 0
DWIDTH 9 0
BBX 7 12 1 -1
BITMAP
08
10
00
9C
A2
C0
80
80
80
80
80
80
ENDCHAR
STARTCHAR C0154
ENCODING 340
SWIDTH 432 0
DWIDTH 9 0
BBX 7 16 1 -4
BITMAP
F8
84
82
82
82
82
84
F8
88
84
84
82
82
10
08
30
ENDCHAR
STARTCHAR C0155
ENCODING 341
SWIDTH 432 0
DWIDTH 9 0
BBX 7 12 1 -4
BITMAP
9C
A2
C0
80
80
80
80
80
80
10
08
30
ENDCHAR
STARTCHAR C0156
ENCODING 342
SWIDTH 432 0
DWIDTH 9 0
BBX 7 16 1 -1
BITMAP
50
20
00
F8
84
82
82
82
82
84
F8
88
84
84
82
82
ENDCHAR
STARTCHAR C0157
ENCODING 343
SWIDTH 432 0
DWIDTH 9 0
BBX 7 12 1 -1
BITMAP
28
10
00
9C
A2
C0
80
80
80
80
80
80
ENDCHAR
STARTCHAR C0158
ENCODING 344
SWIDTH 432 0
DWIDTH 9 0
BBX 7 16 1 -1
BITMAP
08
10
00
38
44
82
80
80
40
38
04
02
02
82
44
38
ENDCHAR
STARTCHAR C0159
ENCODING 345
SWIDTH 432 0
DWIDTH 9 0
BBX 7 12 1 -1
BITMAP
08
10
00
7C
82
80
80
7C
02
02
82
7C
ENDCHAR
STARTCHAR C015a
ENCODING 346
SWIDTH 432 0
DWIDTH 9 0
BBX 7 16 1 -1
BITMAP
10
28
00
38
44
82
80
80
40
38
04
02
02
82
44
38
ENDCHAR
STARTCHAR C015b
ENCODING 347
SWIDTH 432 0
DWIDTH 9 0
BBX 7 12 1 -1
BITMAP
10
28
00
7C
82
80
80
7C
02
02
82
7C
ENDCHAR
STARTCHAR C015c
ENCODING 348
SWIDTH 432 0
DWIDTH 9 0
BBX 7 16 1 -4
BITMAP
38
44
82
80
80
40
38
04
02
02
82
44
38
10
08
30
ENDCHAR
STARTCHAR C015d
ENCODING 349
SWIDTH 432 0
DWIDTH 9 0
BBX 7 12 1 -4
BITMAP
7C
82
80
80
7C
02
02
82
7C
10
08
30
ENDCHAR
STARTCHAR C015e
ENCODING 350
SWIDTH 432 0
DWIDTH 9 0
BBX 7 16 1 -1
BITMAP
28
10
00
38
44
82
80
80
40
38
04
02
02
82
44
38
ENDCHAR
STARTCHAR C015f
ENCODING 351
SWIDTH 432 0
DWIDTH 9 0
BBX 7 12 1 -1
BITMAP
28
10
00
7C
82
80
80
7C
02
02
82
7C
ENDCHAR
STARTCHAR C0160
ENCODING 352
SWIDTH 432 0
DWIDTH 9 0
BBX 7 16 1 -4
BITMAP
FE
10
10
10
10
10
10
10
10
10
10
10
10
10
08
30
ENDCHAR
STARTCHAR C0161
ENCODING 353
SWIDTH 432 0
DWIDTH 9 0
BBX 6 14 2 -4
BITMAP
20
20
F8
20
20
20
20
20
20
20
1C
10
08
30
ENDCHAR
STARTCHAR C0162
ENCODING 354
SWIDTH 432 0
DWIDTH 9 0
BBX 7 16 1 -1
BITMAP
28
10
00
FE
10
10
10
10
10
10
10
10
10
10
10
10
ENDCHAR
STARTCHAR C0163
ENCODING 355
SWIDTH 432 0
DWIDTH 9 0
BBX 6 14 2 -1
BITMAP
50
20
00
20
20
F8
20
20
20
20
20
20
20
1C
ENDCHAR
STARTCHAR C0164
ENCODING 356
SWIDTH 432 0
DWIDTH 9 0
BBX 7 13 1 -1
BITMAP
FE
10
10
10
10
10
7C
10
10
10
10
10
10
ENDCHAR
STARTCHAR C0165
ENCODING 357
SWIDTH 432 0
DWIDTH 9 0
BBX 6 11 2 -1
BITMAP
20
20
F8
20
70
20
20
20
20
20
1C
ENDCHAR
STARTCHAR C0166
ENCODING 358
SWIDTH 432 0
DWIDTH 9 0
BBX 7 16 1 -1
BITMAP
66
98
00
82
82
82
82
82
82
82
82
82
82
82
44
38
ENDCHAR
STARTCHAR C0167
ENCODING 359
SWIDTH 432 0
DWIDTH 9 0
BBX 7 12 1 -1
BITMAP
66
98
00
82
82
82
82
82
82
82
46
3A
ENDCHAR
STARTCHAR C0168
ENCODING 360
SWIDTH 432 0
DWIDTH 9 0
BBX 7 15 1 -1
BITMAP
7C
00
82
82
82
82
82
82
82
82
82
82
82
44
38
ENDCHAR
STARTCHAR C0169
ENCODING 361
SWIDTH 432 0
DWIDTH 9 0
BBX 7 11 1 -1
BITMAP
7C
00
82
82
82
82
82
82
82
46
3A
ENDCHAR
STARTCHAR C016a
ENCODING 362
SWIDTH 432 0
DWIDTH 9 0
BBX 7 16 1 -1
BITMAP
44
38
00
82
82
82
82
82
82
82
82
82
82
82
44
38
ENDCHAR
STARTCHAR C016b
ENCODING 363
SWIDTH 432 0
DWIDTH 9 0
BBX 7 12 1 -1
BITMAP
44
38
00
82
82
82
82
82
82
82
46
3A
ENDCHAR
STARTCHAR C016c
ENCODING 364
SWIDTH 432 0
DWIDTH 9 0
BBX 7 16 1 -1
BITMAP
10
28
10
82
82
82
82
82
82
82
82
82
82
82
44
38
ENDCHAR
STARTCHAR C016d
ENCODING 365
SWIDTH 432 0
DWIDTH 9 0
BBX 7 13 1 -1
BITMAP
10
28
10
00
82
82
82
82
82
82
82
46
3A
ENDCHAR
STARTCHAR C016e
ENCODING 366
SWIDTH 432 0
DWIDTH 9 0
BBX 7 16 1 -1
BITMAP
24
48
00
82
82
82
82
82
82
82
82
82
82
82
44
38
ENDCHAR
STARTCHAR C016f
ENCODING 367
SWIDTH 432 0
DWIDTH 9 0
BBX 7 12 1 -1
BITMAP
24
48
00
82
82
82
82
82
82
82
46
3A
ENDCHAR
STARTCHAR C0170
ENCODING 368
SWIDTH 432 0
DWIDTH 9 0
BBX 7 16 1 -4
BITMAP
82
82
82
82
82
82
82
82
82
82
82
44
38
10
20
18
ENDCHAR
STARTCHAR C0171
ENCODING 369
SWIDTH 432 0
DWIDTH 9 0
BBX 8 12 1 -4
BITMAP
82
82
82
82
82
82
82
46
3A
02
04
03
ENDCHAR
STARTCHAR C0172
ENCODING 370
SWIDTH 432 0
DWIDTH 9 0
BBX 7 16 1 -1
BITMAP
10
28
00
82
82
82
82
82
92
92
AA
AA
C6
C6
82
82
ENDCHAR
STARTCHAR C0173
ENCODING 371
SWIDTH 432 0
DWIDTH 9 0
BBX 7 12 1 -1
BITMAP
10
28
00
82
92
92
92
AA
AA
44
44
44
ENDCHAR
STARTCHAR C0174
ENCODING 372
SWIDTH 432 0
DWIDTH 9 0
BBX 7 16 1 -1
BITMAP
10
28
00
82
82
44
44
28
28
10
10
10
10
10
10
10
ENDCHAR
STARTCHAR C0175
ENCODING 373
SWIDTH 432 0
DWIDTH 9 0
BBX 7 15 1 -4
BITMAP
10
28
00
82
82
82
44
44
28
28
10
10
20
20
C0
ENDCHAR
STARTCHAR C0176
ENCODING 374
SWIDTH 432 0
DWIDTH 9 0
BBX 7 16 1 -1
BITMAP
44
44
00
82
82
44
44
28
28
10
10
10
10
10
10
10
ENDCHAR
STARTCHAR C0177
ENCODING 375
SWIDTH 432 0
DWIDTH 9 0
BBX 7 16 1 -1
BITMAP
08
10
00
FE
02
02
02
04
08
10
20
40
80
80
80
FE
ENDCHAR
STARTCHAR C0178
ENCODING 376
SWIDTH 432 0
DWIDTH 9 0
BBX 7 12 1 -1
BITMAP
08
10
00
FE
02
04
08
10
20
40
80
FE
ENDCHAR
STARTCHAR C0179
ENCODING 377
SWIDTH 432 0
DWIDTH 9 0
BBX 7 16 1 -1
BITMAP
10
10
00
FE
02
02
02
04
08
10
20
40
80
80
80
FE
ENDCHAR
STARTCHAR C017a
ENCODING 378
SWIDTH 432 0
DWIDTH 9 0
BBX 7 12 1 -1
BITMAP
10
10
00
FE
02
04
08
10
20
40
80
FE
ENDCHAR
STARTCHAR C017b
ENCODING 379
SWIDTH 432 0
DWIDTH 9 0
BBX 7 16 1 -1
BITMAP
28
10
00
FE
02
02
02
04
08
10
20
40
80
80
80
FE
ENDCHAR
STARTCHAR C017c
ENCODING 380
SWIDTH 432 0
DWIDTH 9 0
BBX 7 12 1 -1
BITMAP
28
10
00
FE
02
04
08
10
20
40
80
FE
ENDCHAR
STARTCHAR C017d
ENCODING 381
SWIDTH 432 0
DWIDTH 9 0
BBX 6 13 2 -1
BITMAP
1C
20
20
20
E0
20
20
20
20
20
20
20
20
ENDCHAR
STARTCHAR C017e
ENCODING 382
SWIDTH 432 0
DWIDTH 9 0
BBX 8 13 0 -1
BITMAP
40
40
F0
40
5C
62
41
41
41
41
41
62
5C
ENDCHAR
STARTCHAR C017f
ENCODING 383
SWIDTH 432 0
DWIDTH 9 0
BBX 8 13 0 -1
BITMAP
7C
A2
21
21
22
3C
22
21
21
21
21
22
3C
ENDCHAR
STARTCHAR C0180
ENCODING 384
SWIDTH 432 0
DWIDTH 9 0
BBX 7 13 1 -1
BITMAP
FC
80
80
80
80
F8
84
82
82
82
82
84
F8
ENDCHAR
STARTCHAR C0181
ENCODING 385
SWIDTH 432 0
DWIDTH 9 0
BBX 7 13 1 -1
BITMAP
FC
80
80
80
B8
C4
82
82
82
82
82
C4
B8
ENDCHAR
STARTCHAR C0182
ENCODING 386
SWIDTH 432 0
DWIDTH 9 0
BBX 8 13 0 -1
BITMAP
40
C0
C0
40
40
7C
42
41
41
41
41
42
7C
ENDCHAR
STARTCHAR C0183
ENCODING 387
SWIDTH 432 0
DWIDTH 9 0
BBX 8 13 0 -1
BITMAP
40
C0
C0
40
5C
62
41
41
41
41
41
62
5C
ENDCHAR
STARTCHAR C0184
ENCODING 388
SWIDTH 432 0
DWIDTH 9 0
BBX 7 13 1 -1
BITMAP
38
44
82
02
02
02
02
02
02
02
82
44
38
ENDCHAR
STARTCHAR C0185
ENCODING 389
SWIDTH 432 0
DWIDTH 9 0
BBX 8 14 1 -1
BITMAP
03
34
4C
84
80
80
80
80
80
80
80
84
48
30
ENDCHAR
STARTCHAR C0186
ENCODING 390
SWIDTH 432 0
DWIDTH 9 0
BBX 9 11 0 -1
BITMAP
0180
0200
3E00
4200
8000
8000
8000
8000
8000
4200
3C00
ENDCHAR
STARTCHAR C0187
ENCODING 391
SWIDTH 432 0
DWIDTH 9 0
BBX 8 13 0 -1
BITMAP
7C
42
41
41
41
41
F1
41
41
41
41
42
7C
ENDCHAR
STARTCHAR C0188
ENCODING 392
SWIDTH 432 0
DWIDTH 9 0
BBX 8 13 0 -1
BITMAP
7C
A2
A1
21
21
21
21
21
21
21
21
22
3C
ENDCHAR
STARTCHAR C0189
ENCODING 393
SWIDTH 432 0
DWIDTH 9 0
BBX 7 13 1 -1
BITMAP
7E
02
02
02
02
3E
42
82
82
82
82
42
3E
ENDCHAR
STARTCHAR C018a
ENCODING 394
SWIDTH 432 0
DWIDTH 9 0
BBX 7 13 1 -1
BITMAP
7E
02
02
02
3A
46
82
82
82
82
82
46
3A
ENDCHAR
STARTCHAR C018b
ENCODING 395
SWIDTH 432 0
DWIDTH 9 0
BBX 7 13 1 -5
BITMAP
38
44
82
82
82
82
82
44
38
20
10
48
30
ENDCHAR
STARTCHAR C018c
ENCODING 396
SWIDTH 432 0
DWIDTH 9 0
BBX 7 13 1 -1
BITMAP
FE
02
02
02
02
02
3E
02
02
02
02
02
FE
ENDCHAR
STARTCHAR C018d
ENCODING 397
SWIDTH 432 0
DWIDTH 9 0
BBX 7 13 1 -1
BITMAP
38
44
82
02
02
02
FE
82
82
82
82
44
38
ENDCHAR
STARTCHAR C018e
ENCODING 398
SWIDTH 432 0
DWIDTH 9 0
BBX 7 13 1 -1
BITMAP
38
44
82
80
80
40
38
40
80
80
82
44
38
ENDCHAR
STARTCHAR C018f
ENCODING 399
SWIDTH 432 0
DWIDTH 9 0
BBX 8 16 0 -4
BITMAP
3F
20
20
20
20
20
3C
20
20
20
20
20
20
20
20
C0
ENDCHAR
STARTCHAR C0190
ENCODING 400
SWIDTH 432 0
DWIDTH 9 0
BBX 6 16 2 -4
BITMAP
1C
20
20
20
F8
20
20
20
20
20
20
20
20
20
20
C0
ENDCHAR
STARTCHAR C0191
ENCODING 401
SWIDTH 432 0
DWIDTH 9 0
BBX 8 14 1 -1
BITMAP
03
34
4C
84
80
80
80
80
9C
84
84
84
4C
34
ENDCHAR
STARTCHAR C0192
ENCODING 402
SWIDTH 432 0
DWIDTH 9 0
BBX 7 13 1 -1
BITMAP
82
82
82
44
44
44
44
28
28
10
28
28
10
ENDCHAR
STARTCHAR C0193
ENCODING 403
SWIDTH 432 0
DWIDTH 9 0
BBX 7 13 1 -1
BITMAP
80
80
80
80
A0
D2
92
92
92
92
92
92
8C
ENDCHAR
STARTCHAR C0194
ENCODING 404
SWIDTH 432 0
DWIDTH 9 0
BBX 4 13 3 -1
BITMAP
C0
40
40
40
40
40
40
40
40
40
40
40
30
ENDCHAR
STARTCHAR C0195
ENCODING 405
SWIDTH 432 0
DWIDTH 9 0
BBX 5 13 2 -1
BITMAP
70
20
20
20
20
20
F8
20
20
20
20
20
70
ENDCHAR
STARTCHAR C0196
ENCODING 406
SWIDTH 432 0
DWIDTH 9 0
BBX 8 13 1 -1
BITMAP
82
85
88
90
A0
C0
C0
A0
90
88
84
82
82
ENDCHAR
STARTCHAR C0197
ENCODING 407
SWIDTH 432 0
DWIDTH 9 0
BBX 7 14 1 -1
BITMAP
40
A0
80
80
80
82
84
88
90
E0
90
88
84
82
ENDCHAR
STARTCHAR C0198
ENCODING 408
SWIDTH 432 0
DWIDTH 9 0
BBX 5 13 2 -1
BITMAP
60
20
20
20
20
20
F8
20
20
20
20
20
18
ENDCHAR
STARTCHAR C0199
ENCODING 409
SWIDTH 432 0
DWIDTH 9 0
BBX 7 12 1 -1
BITMAP
C8
30
20
50
90
28
28
44
44
82
82
82
ENDCHAR
STARTCHAR C019a
ENCODING 410
SWIDTH 432 0
DWIDTH 9 0
BBX 7 13 1 -1
BITMAP
92
92
92
92
92
92
92
92
92
92
92
92
6E
ENDCHAR
STARTCHAR C019b
ENCODING 411
SWIDTH 432 0
DWIDTH 9 0
BBX 8 15 0 -3
BITMAP
41
41
61
61
51
51
49
49
45
45
43
43
41
40
80
ENDCHAR
STARTCHAR C019c
ENCODING 412
SWIDTH 432 0
DWIDTH 9 0
BBX 7 12 1 -4
BITMAP
B8
C4
82
82
82
82
82
82
82
02
02
02
ENDCHAR
STARTCHAR C019d
ENCODING 413
SWIDTH 432 0
DWIDTH 9 0
BBX 7 13 1 -1
BITMAP
38
44
82
82
82
82
FE
82
82
82
82
44
38
ENDCHAR
STARTCHAR C019e
ENCODING 414
SWIDTH 432 0
DWIDTH 9 0
BBX 8 15 1 -1
BITMAP
03
01
32
48
84
84
84
84
84
84
84
84
84
48
30
ENDCHAR
STARTCHAR C019f
ENCODING 415
SWIDTH 432 0
DWIDTH 9 0
BBX 8 11 1 -1
BITMAP
03
01
32
48
84
84
84
84
84
48
30
ENDCHAR
STARTCHAR C01a0
ENCODING 416
SWIDTH 432 0
DWIDTH 9 0
BBX 9 15 0 -3
BITMAP
3080
4980
8680
8480
8480
8480
8480
8480
8480
8480
8480
4880
3080
0080
0080
ENDCHAR
STARTCHAR C01a1
ENCODING 417
SWIDTH 432 0
DWIDTH 9 0
BBX 7 12 1 -4
BITMAP
72
8E
8A
8A
8A
8A
8A
8A
72
02
02
02
ENDCHAR
STARTCHAR C01a2
ENCODING 418
SWIDTH 432 0
DWIDTH 9 0
BBX 8 13 0 -1
BITMAP
7C
A2
21
21
21
21
22
3C
20
20
20
20
20
ENDCHAR
STARTCHAR C01a3
ENCODING 419
SWIDTH 432 0
DWIDTH 9 0
BBX 7 15 1 -4
BITMAP
40
A0
80
B8
C4
82
82
82
82
82
C4
B8
80
80
80
ENDCHAR
STARTCHAR C01a4
ENCODING 420
SWIDTH 432 0
DWIDTH 9 0
BBX 8 15 1 -3
BITMAP
80
80
F8
84
82
82
82
84
F8
A0
90
88
84
02
01
ENDCHAR
STARTCHAR C01a5
ENCODING 421
SWIDTH 432 0
DWIDTH 9 0
BBX 7 13 1 -1
BITMAP
38
44
82
02
02
04
38
40
80
80
82
44
38
ENDCHAR
STARTCHAR C01a6
ENCODING 422
SWIDTH 432 0
DWIDTH 9 0
BBX 7 9 1 -1
BITMAP
7C
82
02
02
7C
80
80
82
7C
ENDCHAR
STARTCHAR C01a7
ENCODING 423
SWIDTH 432 0
DWIDTH 9 0
BBX 7 13 1 -1
BITMAP
FE
80
40
20
10
08
04
08
10
20
40
80
FE
ENDCHAR
STARTCHAR C01a8
ENCODING 424
SWIDTH 432 0
DWIDTH 9 0
BBX 7 16 0 -4
BITMAP
60
90
78
10
10
10
10
10
10
10
10
10
10
10
10
0E
ENDCHAR
STARTCHAR C01a9
ENCODING 425
SWIDTH 432 0
DWIDTH 9 0
BBX 6 14 2 -4
BITMAP
20
20
F8
20
20
20
20
20
20
20
1C
04
04
18
ENDCHAR
STARTCHAR C01aa
ENCODING 426
SWIDTH 432 0
DWIDTH 9 0
BBX 8 13 0 -1
BITMAP
7F
88
88
08
08
08
08
08
08
08
08
08
08
ENDCHAR
STARTCHAR C01ab
ENCODING 427
SWIDTH 432 0
DWIDTH 9 0
BBX 6 13 2 -1
BITMAP
18
20
20
20
F8
20
20
20
20
20
20
20
1C
ENDCHAR
STARTCHAR C01ac
ENCODING 428
SWIDTH 432 0
DWIDTH 9 0
BBX 7 15 1 -3
BITMAP
FE
10
10
10
10
10
10
10
10
10
10
10
10
10
0C
ENDCHAR
STARTCHAR C01ad
ENCODING 429
SWIDTH 432 0
DWIDTH 9 0
BBX 8 15 1 -1
BITMAP
01
01
86
84
84
84
84
84
84
84
84
84
84
48
30
ENDCHAR
STARTCHAR C01ae
ENCODING 430
SWIDTH 432 0
DWIDTH 9 0
BBX 8 11 1 -1
BITMAP
01
01
86
84
84
84
84
84
84
4C
34
ENDCHAR
STARTCHAR C01af
ENCODING 431
SWIDTH 432 0
DWIDTH 9 0
BBX 7 13 1 -1
BITMAP
EE
28
28
44
82
82
82
82
82
82
82
44
38
ENDCHAR
STARTCHAR C01b0
ENCODING 432
SWIDTH 432 0
DWIDTH 9 0
BBX 8 13 1 -1
BITMAP
84
84
82
82
82
81
81
81
81
81
82
42
3C
ENDCHAR
STARTCHAR C01b1
ENCODING 433
SWIDTH 432 0
DWIDTH 9 0
BBX 7 13 1 -1
BITMAP
86
88
88
50
50
50
20
20
20
20
20
20
20
ENDCHAR
STARTCHAR C01b2
ENCODING 434
SWIDTH 432 0
DWIDTH 9 0
BBX 8 14 1 -4
BITMAP
03
04
84
88
88
50
50
50
20
20
20
40
40
80
ENDCHAR
STARTCHAR C01b3
ENCODING 435
SWIDTH 432 0
DWIDTH 9 0
BBX 7 13 1 -1
BITMAP
FE
02
02
02
04
08
7C
20
40
80
80
80
FE
ENDCHAR
STARTCHAR C01b4
ENCODING 436
SWIDTH 432 0
DWIDTH 9 0
BBX 7 9 1 -1
BITMAP
FE
02
04
08
7C
20
40
80
FE
ENDCHAR
STARTCHAR C01b5
ENCODING 437
SWIDTH 432 0
DWIDTH 9 0
BBX 7 13 1 -1
BITMAP
FE
02
04
08
10
38
04
02
02
02
82
44
38
ENDCHAR
STARTCHAR C01b6
ENCODING 438
SWIDTH 432 0
DWIDTH 9 0
BBX 7 13 1 -1
BITMAP
FE
80
40
20
10
38
40
80
80
80
82
44
38
ENDCHAR
STARTCHAR C01b7
ENCODING 439
SWIDTH 432 0
DWIDTH 9 0
BBX 7 12 1 -4
BITMAP
FE
80
40
20
10
38
40
80
80
82
44
38
ENDCHAR
STARTCHAR C01b8
ENCODING 440
SWIDTH 432 0
DWIDTH 9 0
BBX 7 12 1 -4
BITMAP
FE
02
04
08
10
38
04
02
3C
40
42
3C
ENDCHAR
STARTCHAR C01b9
ENCODING 441
SWIDTH 432 0
DWIDTH 9 0
BBX 7 13 1 -1
BITMAP
38
44
82
82
02
02
04
7E
10
20
40
80
FE
ENDCHAR
STARTCHAR C01ba
ENCODING 442
SWIDTH 432 0
DWIDTH 9 0
BBX 8 13 0 -1
BITMAP
FF
41
40
40
40
7C
02
01
01
01
41
22
1C
ENDCHAR
STARTCHAR C01bb
ENCODING 443
SWIDTH 432 0
DWIDTH 9 0
BBX 7 9 1 -1
BITMAP
FE
42
40
78
04
02
02
44
38
ENDCHAR
STARTCHAR C01bc
ENCODING 444
SWIDTH 432 0
DWIDTH 9 0
BBX 7 11 1 -1
BITMAP
20
20
F8
20
20
20
1C
02
02
82
7C
ENDCHAR
STARTCHAR C01bd
ENCODING 445
SWIDTH 432 0
DWIDTH 9 0
BBX 7 12 1 -4
BITMAP
B8
C4
82
82
82
82
84
88
90
E0
80
80
ENDCHAR
STARTCHAR C01be
ENCODING 446
SWIDTH 432 0
DWIDTH 9 0
BBX 1 13 4 -1
BITMAP
80
80
80
80
80
80
80
80
80
80
80
80
80
ENDCHAR
STARTCHAR C01bf
ENCODING 447
SWIDTH 432 0
DWIDTH 9 0
BBX 3 13 3 -1
BITMAP
A0
A0
A0
A0
A0
A0
A0
A0
A0
A0
A0
A0
A0
ENDCHAR
STARTCHAR C01c0
ENCODING 448
SWIDTH 432 0
DWIDTH 9 0
BBX 5 13 2 -1
BITMAP
20
20
20
20
F8
20
F8
20
20
20
20
20
20
ENDCHAR
STARTCHAR C01c1
ENCODING 449
SWIDTH 432 0
DWIDTH 9 0
BBX 1 13 4 -1
BITMAP
80
80
80
80
80
80
80
80
80
80
00
80
80
ENDCHAR
STARTCHAR C01c2
ENCODING 450
SWIDTH 432 0
DWIDTH 9 0
BBX 9 16 0 -1
BITMAP
0500
0200
0000
C780
A080
9080
9100
9100
9100
9200
9200
9200
9200
9400
A400
C780
ENDCHAR
STARTCHAR C01c3
ENCODING 451
SWIDTH 432 0
DWIDTH 9 0
BBX 9 13 0 -1
BITMAP
C000
A500
9200
9000
9780
9080
9100
9100
9200
9200
9400
A400
C780
ENDCHAR
STARTCHAR C01c4
ENCODING 452
SWIDTH 432 0
DWIDTH 9 0
BBX 9 13 0 -1
BITMAP
1000
1500
1200
1000
5780
B080
9100
9100
9200
9200
9400
B400
5780
ENDCHAR
STARTCHAR C01c5
ENCODING 453
SWIDTH 432 0
DWIDTH 9 0
BBX 9 13 0 -1
BITMAP
8080
8080
8080
8080
8080
8080
8080
8080
8080
8080
8080
8480
F300
ENDCHAR
STARTCHAR C01c6
ENCODING 454
SWIDTH 432 0
DWIDTH 9 0
BBX 7 16 1 -4
BITMAP
80
82
82
80
82
82
82
82
82
82
82
82
FA
02
02
1C
ENDCHAR
STARTCHAR C01c7
ENCODING 455
SWIDTH 432 0
DWIDTH 9 0
BBX 7 16 1 -4
BITMAP
C0
42
42
40
42
42
42
42
42
42
42
42
32
02
02
1C
ENDCHAR
STARTCHAR C01c8
ENCODING 456
SWIDTH 432 0
DWIDTH 9 0
BBX 9 13 0 -1
BITMAP
8880
8880
C880
C880
C880
A880
A880
A880
9880
9880
9880
8A80
8900
ENDCHAR
STARTCHAR C01c9
ENCODING 457
SWIDTH 432 0
DWIDTH 9 0
BBX 8 16 0 -4
BITMAP
84
85
C5
C4
A5
A5
95
95
8D
8D
85
85
85
01
01
0E
ENDCHAR
STARTCHAR C01ca
ENCODING 458
SWIDTH 432 0
DWIDTH 9 0
BBX 8 15 0 -4
BITMAP
01
01
00
B1
C9
85
85
85
85
85
85
85
01
01
0E
ENDCHAR
STARTCHAR C01cb
ENCODING 459
SWIDTH 432 0
DWIDTH 9 0
BBX 7 16 1 -1
BITMAP
28
10
00
10
10
28
28
28
44
44
44
44
FE
82
82
82
ENDCHAR
STARTCHAR C01cc
ENCODING 460
SWIDTH 432 0
DWIDTH 9 0
BBX 7 12 1 -1
BITMAP
14
08
00
3C
42
02
3E
42
82
82
46
3A
ENDCHAR
STARTCHAR C01cd
ENCODING 461
SWIDTH 432 0
DWIDTH 9 0
BBX 3 16 3 -1
BITMAP
A0
40
00
E0
40
40
40
40
40
40
40
40
40
40
40
E0
ENDCHAR
STARTCHAR C01ce
ENCODING 462
SWIDTH 432 0
DWIDTH 9 0
BBX 3 13 3 -1
BITMAP
A0
40
00
00
C0
40
40
40
40
40
40
40
40
ENDCHAR
STARTCHAR C01cf
ENCODING 463
SWIDTH 432 0
DWIDTH 9 0
BBX 7 16 1 -1
BITMAP
28
10
00
38
44
82
82
82
82
82
82
82
82
82
44
38
ENDCHAR
STARTCHAR C01d0
ENCODING 464
SWIDTH 432 0
DWIDTH 9 0
BBX 7 12 1 -1
BITMAP
28
10
00
38
44
82
82
82
82
82
44
38
ENDCHAR
STARTCHAR C01d1
ENCODING 465
SWIDTH 432 0
DWIDTH 9 0
BBX 7 16 1 -1
BITMAP
28
10
00
82
82
82
82
82
82
82
82
82
82
82
44
38
ENDCHAR
STARTCHAR C01d2
ENCODING 466
SWIDTH 432 0
DWIDTH 9 0
BBX 7 12 1 -1
BITMAP
28
10
00
82
82
82
82
82
82
82
46
3A
ENDCHAR
STARTCHAR C01d3
ENCODING 467
SWIDTH 432 0
DWIDTH 9 0
BBX 7 16 1 -1
BITMAP
7C
00
28
82
82
82
82
82
82
82
82
82
82
82
44
38
ENDCHAR
STARTCHAR C01d4
ENCODING 468
SWIDTH 432 0
DWIDTH 9 0
BBX 7 14 1 -1
BITMAP
7C
00
44
44
00
82
82
82
82
82
82
82
46
3A
ENDCHAR
STARTCHAR C01d5
ENCODING 469
SWIDTH 432 0
DWIDTH 9 0
BBX 7 16 1 -1
BITMAP
08
10
00
AA
82
82
82
82
82
82
82
82
82
82
44
38
ENDCHAR
STARTCHAR C01d6
ENCODING 470
SWIDTH 432 0
DWIDTH 9 0
BBX 7 14 1 -1
BITMAP
08
10
44
44
00
82
82
82
82
82
82
82
46
3A
ENDCHAR
STARTCHAR C01d7
ENCODING 471
SWIDTH 432 0
DWIDTH 9 0
BBX 7 16 1 -1
BITMAP
44
38
00
AA
82
82
82
82
82
82
82
82
82
82
44
38
ENDCHAR
STARTCHAR C01d8
ENCODING 472
SWIDTH 432 0
DWIDTH 9 0
BBX 7 15 1 -1
BITMAP
44
38
00
44
44
00
82
82
82
82
82
82
82
46
3A
ENDCHAR
STARTCHAR C01d9
ENCODING 473
SWIDTH 432 0
DWIDTH 9 0
BBX 7 16 1 -1
BITMAP
20
10
00
AA
82
82
82
82
82
82
82
82
82
82
44
38
ENDCHAR
STARTCHAR C01da
ENCODING 474
SWIDTH 432 0
DWIDTH 9 0
BBX 7 14 1 -1
BITMAP
20
10
44
44
00
82
82
82
82
82
82
82
46
3A
ENDCHAR
STARTCHAR C01db
ENCODING 475
SWIDTH 432 0
DWIDTH 9 0
BBX 7 9 1 -1
BITMAP
78
84
02
02
FE
82
82
44
38
ENDCHAR
STARTCHAR C01dc
ENCODING 476
SWIDTH 432 0
DWIDTH 9 0
BBX 7 16 1 -1
BITMAP
7C
00
28
00
10
28
28
28
44
44
44
44
FE
82
82
82
ENDCHAR
STARTCHAR C01dd
ENCODING 477
SWIDTH 432 0
DWIDTH 9 0
BBX 7 13 1 -1
BITMAP
7C
00
44
00
3C
42
02
3E
42
82
82
46
3A
ENDCHAR
STARTCHAR C01de
ENCODING 478
SWIDTH 432 0
DWIDTH 9 0
BBX 7 16 1 -1
BITMAP
7C
00
10
00
10
28
28
28
44
44
44
44
FE
82
82
82
ENDCHAR
STARTCHAR C01df
ENCODING 479
SWIDTH 432 0
DWIDTH 9 0
BBX 7 13 1 -1
BITMAP
7C
00
10
00
3C
42
02
3E
42
82
82
46
3A
ENDCHAR
STARTCHAR C01e0
ENCODING 480
SWIDTH 432 0
DWIDTH 9 0
BBX 9 15 0 -1
BITMAP
1F00
0000
1F80
2800
2800
2800
2800
4800
7F00
4800
4800
8800
8800
8800
8F80
ENDCHAR
STARTCHAR C01e1
ENCODING 481
SWIDTH 432 0
DWIDTH 9 0
BBX 9 11 0 -1
BITMAP
3E00
0000
7700
8880
0880
0880
7F00
8800
8800
8880
7700
ENDCHAR
STARTCHAR C01e2
ENCODING 482
SWIDTH 432 0
DWIDTH 9 0
BBX 8 13 1 -1
BITMAP
38
44
82
80
80
80
80
8E
82
8F
82
46
3A
ENDCHAR
STARTCHAR C01e3
ENCODING 483
SWIDTH 432 0
DWIDTH 9 0
BBX 8 13 1 -5
BITMAP
3A
46
82
82
82
82
82
46
3A
02
1F
84
78
ENDCHAR
STARTCHAR C01e4
ENCODING 484
SWIDTH 432 0
DWIDTH 9 0
BBX 7 16 1 -1
BITMAP
28
10
00
38
44
82
80
80
80
80
8E
82
82
82
46
3A
ENDCHAR
STARTCHAR C01e5
ENCODING 485
SWIDTH 432 0
DWIDTH 9 0
BBX 7 16 1 -5
BITMAP
28
10
00
3A
46
82
82
82
82
82
46
3A
02
02
84
78
ENDCHAR
STARTCHAR C01e6
ENCODING 486
SWIDTH 432 0
DWIDTH 9 0
BBX 7 16 1 -1
BITMAP
28
10
00
82
82
84
88
90
A0
C0
A0
90
88
84
82
82
ENDCHAR
STARTCHAR C01e7
ENCODING 487
SWIDTH 432 0
DWIDTH 9 0
BBX 7 15 1 -1
BITMAP
28
10
80
80
80
80
82
84
88
90
E0
90
88
84
82
ENDCHAR
STARTCHAR C01e8
ENCODING 488
SWIDTH 432 0
DWIDTH 9 0
BBX 7 16 1 -4
BITMAP
38
44
82
82
82
82
82
82
82
82
82
44
38
10
20
18
ENDCHAR
STARTCHAR C01e9
ENCODING 489
SWIDTH 432 0
DWIDTH 9 0
BBX 7 12 1 -4
BITMAP
38
44
82
82
82
82
82
44
38
10
20
18
ENDCHAR
STARTCHAR C01ea
ENCODING 490
SWIDTH 432 0
DWIDTH 9 0
BBX 7 18 1 -4
BITMAP
7C
00
38
44
82
82
82
82
82
82
82
82
82
44
38
10
20
18
ENDCHAR
STARTCHAR C01eb
ENCODING 491
SWIDTH 432 0
DWIDTH 9 0
BBX 7 14 1 -4
BITMAP
7C
00
38
44
82
82
82
82
82
44
38
10
20
18
ENDCHAR
STARTCHAR C01ec
ENCODING 492
SWIDTH 432 0
DWIDTH 9 0
BBX 7 16 1 -1
BITMAP
28
10
00
FE
02
04
08
10
38
04
02
02
02
82
44
38
ENDCHAR
STARTCHAR C01ed
ENCODING 493
SWIDTH 432 0
DWIDTH 9 0
BBX 7 15 1 -4
BITMAP
28
10
00
FE
02
04
08
10
38
04
02
02
82
44
38
ENDCHAR
STARTCHAR C01ee
ENCODING 494
SWIDTH 432 0
DWIDTH 9 0
BBX 5 15 3 -4
BITMAP
28
10
00
10
10
10
10
10
10
10
10
10
10
10
E0
ENDCHAR
STARTCHAR C01ef
ENCODING 495
SWIDTH 432 0
DWIDTH 9 0
BBX 9 13 0 -1
BITMAP
C780
A080
9080
9100
9100
9100
9200
9200
9200
9200
9400
A400
C780
ENDCHAR
STARTCHAR C01f0
ENCODING 496
SWIDTH 432 0
DWIDTH 9 0
BBX 9 13 0 -1
BITMAP
C000
A000
9000
9000
9780
9080
9100
9100
9200
9200
9400
A400
C780
ENDCHAR
STARTCHAR C01f1
ENCODING 497
SWIDTH 432 0
DWIDTH 9 0
BBX 9 13 0 -1
BITMAP
1000
1000
1000
1000
5780
B080
9100
9100
9200
9200
9400
B400
5780
ENDCHAR
STARTCHAR C01f2
ENCODING 498
SWIDTH 432 0
DWIDTH 9 0
BBX 7 16 1 -1
BITMAP
08
10
00
38
44
82
80
80
80
80
8E
82
82
82
46
3A
ENDCHAR
STARTCHAR C01f3
ENCODING 499
SWIDTH 432 0
DWIDTH 9 0
BBX 7 16 1 -5
BITMAP
08
10
00
3A
46
82
82
82
82
82
46
3A
02
02
84
78
ENDCHAR
STARTCHAR C01f4
ENCODING 500
SWIDTH 432 0
DWIDTH 9 0
BBX 9 13 0 -1
BITMAP
8800
8800
8800
8800
8880
8880
F880
8880
8880
8880
8880
8880
8700
ENDCHAR
STARTCHAR C01f5
ENCODING 501
SWIDTH 432 0
DWIDTH 9 0
BBX 6 16 2 -4
BITMAP
F0
88
84
84
84
84
84
84
88
90
A0
C0
80
80
80
80
ENDCHAR
STARTCHAR C01f6
ENCODING 502
SWIDTH 432 0
DWIDTH 9 0
BBX 7 16 1 -1
BITMAP
20
10
00
82
82
C2
C2
A2
A2
92
92
8A
8A
86
86
82
ENDCHAR
STARTCHAR C01f7
ENCODING 503
SWIDTH 432 0
DWIDTH 9 0
BBX 7 12 1 -1
BITMAP
20
10
00
B8
C4
82
82
82
82
82
82
82
ENDCHAR
STARTCHAR C01f8
ENCODING 504
SWIDTH 432 0
DWIDTH 9 0
BBX 7 16 1 -1
BITMAP
08
10
10
28
10
00
10
28
28
28
44
44
7E
82
82
82
ENDCHAR
STARTCHAR C01f9
ENCODING 505
SWIDTH 432 0
DWIDTH 9 0
BBX 7 16 1 -1
BITMAP
04
08
00
08
14
08
00
3C
42
02
3E
42
82
82
46
3A
ENDCHAR
STARTCHAR C01fa
ENCODING 506
SWIDTH 432 0
DWIDTH 9 0
BBX 9 16 0 -1
BITMAP
0200
0400
0000
1F80
2800
2800
2800
2800
4800
7F00
4800
4800
8800
8800
8800
8F80
ENDCHAR
STARTCHAR C01fb
ENCODING 507
SWIDTH 432 0
DWIDTH 9 0
BBX 9 12 0 -1
BITMAP
0400
0800
0000
7700
8880
0880
0880
7F00
8800
8800
8880
7700
ENDCHAR
STARTCHAR C01fc
ENCODING 508
SWIDTH 432 0
DWIDTH 9 0
BBX 9 16 0 -1
BITMAP
0400
0800
0000
1C00
2200
4180
4100
4300
4500
4900
5100
6100
4100
C100
2200
1C00
ENDCHAR
STARTCHAR C01fd
ENCODING 509
SWIDTH 432 0
DWIDTH 9 0
BBX 9 12 0 -1
BITMAP
0400
0800
0000
1C80
2300
4300
4500
4900
5100
6100
6200
9C00
ENDCHAR
STARTCHAR C01fe
ENCODING 510
SWIDTH 432 0
DWIDTH 9 0
BBX 7 16 1 -1
BITMAP
48
24
00
10
10
28
28
28
44
44
44
44
FE
82
82
82
ENDCHAR
STARTCHAR C01ff
ENCODING 511
SWIDTH 432 0
DWIDTH 9 0
BBX 7 12 1 -1
BITMAP
48
24
00
3C
42
02
3E
42
82
82
46
3A
ENDCHAR
ENDFONT
